<svg xmlns="http://www.w3.org/2000/svg" viewBox="0 0 1080 1080"><title>site-logoArtboard 1 copy 2</title><path d="M1027.88,418.55l-132.06-52,33.76-139.82-111,49.75L760.76,156.34,670.8,245,510.71,172.68l-22.57,144-143,31.26,83.23,51-85.22,44.2,71.68,6L118.2,680.19l292.88-154.9L97,766.16,430.37,593.22,71.64,863.32,467.09,653,53.17,954l462-252.14L205.41,952.39,589.62,733.31l-5.47,45.5,65.69-37.63L794.55,879.74l77.67-234,110.5-6.85-56.1-141.64ZM678.08,702.64c-118.44,0-214.46-96-214.46-214.45s96-214.46,214.46-214.46,214.45,96,214.45,214.46S796.52,702.64,678.08,702.64Z" style="fill:#fc9db2"/><path d="M592.83,508.22a11.52,11.52,0,0,0,2-1.64A8.78,8.78,0,0,1,597,504.8a5.57,5.57,0,0,0,2.14-1.83.65.65,0,0,1,.41-.31c.92-.06,1.27-.76,1.68-1.41.09-.15.15-.36.29-.45,2-1.3,3-3.63,4.77-5.15a10.53,10.53,0,0,0,1.81-2,7,7,0,0,1,2.72-2,12.58,12.58,0,0,0,2-1.11c.66-.51.76-.48,1.21.31a9.17,9.17,0,0,0,1.22,1.62,2.89,2.89,0,0,0,2,.84c.22,0,.51,0,.62-.17.51-.87,1.48-1.59,1.16-2.77a3.53,3.53,0,0,1,.17-2.11,2.06,2.06,0,0,0-.6-2.45,1.85,1.85,0,0,1-.76-1.53,2.11,2.11,0,0,0-.64-1.63c-.39-.55-.56-1.24-.91-1.82a36.67,36.67,0,0,0-5.3-7.13,34.72,34.72,0,0,1-3.2-3.64,7.79,7.79,0,0,1-1.7-4.91c0-.95,0-1.9,0-2.85s.59-1.68.9-2.52c.11-.29.38-.51.38-.85,0-2.19,1-4.23,1.19-6.39a13.44,13.44,0,0,1,.61-2.21,3.25,3.25,0,0,0-.1-2.24,3,3,0,0,1-.31-1.82,3,3,0,0,0-.3-1.58c-.56-1.47-1.15-2.94-1.82-4.37a9.6,9.6,0,0,1-.43-1.42,26.45,26.45,0,0,0-2.68-5.31c-.2-.35-.43-.69-.6-1.05-1.14-2.53-3.4-3.88-5.61-5.23-1.59-1-3-2.19-4.51-3.24a9.53,9.53,0,0,1-2.5-3,14.05,14.05,0,0,0-3.16-3.32c-1-.81-1.66-.65-2.51.34a3.8,3.8,0,0,0-.88,1.19,2.13,2.13,0,0,1-1.19,1.22c-1,.52-2,1.1-2.94,1.67s-1.12,1.78-1.21,2.86a1.14,1.14,0,0,0,.39.84,4.43,4.43,0,0,0,5.13.86,3.78,3.78,0,0,1,1.12-.46c1.4-.24,1.85,0,2.45,1.27.19.41.38.82.58,1.22.28.59.21.75-.43.94a2.53,2.53,0,0,0-2,2.53,1.24,1.24,0,0,0,.57,1.16,6,6,0,0,0,1.26.79,1.13,1.13,0,0,1,.91,1.26c.15,0,.25.06.3,0,.9-.62,1-.59,1.4.38.08.2.08.44.15.65.28.84.61,1.58,1.68,1.68.62.06,1.1.56,1.77.61a.46.46,0,0,1,.1.89c-1.62.67-2.29,2.26-3.42,3.4a2.55,2.55,0,0,0-.44.83,5.84,5.84,0,0,1-1.32,2.18.74.74,0,0,0-.24.46c-.06,1.41-1.11,1.86-2.18,2.25-.74.26-1,.13-1.28-.55a2.44,2.44,0,0,1-.33-1c0-.83-.26-1.61-.27-2.41,0-2-1.35-3.12-2.78-4a10.68,10.68,0,0,0-4.95-1.66,11.21,11.21,0,0,1-3.07-.85,30.71,30.71,0,0,0-5.89-2,1.16,1.16,0,0,1-1.1-1.11,28.41,28.41,0,0,1-.45-6.31,4.19,4.19,0,0,0-1.22-3.2,13.13,13.13,0,0,1-1.06-1.05A6.23,6.23,0,0,0,559,422.4a4.37,4.37,0,0,1-3.8-3.66,11.71,11.71,0,0,1,0-2.44,2.52,2.52,0,0,1,2.13-1.94,7.71,7.71,0,0,0,3.89-1,5.3,5.3,0,0,0,2.93-4.59,6.05,6.05,0,0,0-1.47-4.51c-.67-.85-1.27-1.76-2-2.56a2.24,2.24,0,0,1-.26-2.07,3.34,3.34,0,0,1,.42-1.14,6,6,0,0,0,.58-3.82,1.55,1.55,0,0,0-.12-.66c-1.11-1.92-.93-4.22-1.86-6.19a.57.57,0,0,1,.05-.52,2.41,2.41,0,0,0,.14-1.57c-.1-1,.2-1.71,1.1-1.9,1.26-.26,2.09-1.2,3.11-1.83a2,2,0,0,1,.82-.44,4.76,4.76,0,0,0,2.42-1.13c.14-.11.24-.25.45-.22,2.18.28,4.38.06,6.55.59a6.55,6.55,0,0,0,4.4-.92c.2-.1.37-.34.56-.34a2.31,2.31,0,0,0,2-1.34,2.44,2.44,0,0,0,.39-1.2,27.62,27.62,0,0,1,.5-3.73,2.87,2.87,0,0,0-.39-2.2,3.06,3.06,0,0,1-.53-1.8,3.37,3.37,0,0,0-.59-2,5.17,5.17,0,0,1-.81-2.14,4,4,0,0,0-.68-1.75,2.41,2.41,0,0,1-.51-1.1,8,8,0,0,0-2-4.07,1.73,1.73,0,0,1,.47-2.86,1.39,1.39,0,0,1,.89-.17,4.08,4.08,0,0,0,3.91-2.21,2.29,2.29,0,0,1,.4-.54,2.71,2.71,0,0,0,.95-2.9.65.65,0,0,1,0-.39,7.55,7.55,0,0,0,.39-3.71,1.2,1.2,0,0,1,.69-1.36c.63-.29.72-1.07,1.29-1.36,1.94-1,2.67-2.87,3.61-4.61a3.32,3.32,0,0,0,.16-1.33c.12-1.2.4-1.48,1.61-1.36a.79.79,0,0,0,.81-.34,4.2,4.2,0,0,0,.86-1.65c.24-1.64.53-1.83,2.23-2.06a13.07,13.07,0,0,0,4.37-1.39,14.78,14.78,0,0,1,3.45-.91,14.43,14.43,0,0,0,2.85-.81,1.55,1.55,0,0,1,1-.23.76.76,0,0,0,.52,0,3.38,3.38,0,0,1,3.31-.34c.78.25,1.62-.09,2.41,0a9.89,9.89,0,0,0,4.58-.54,8.08,8.08,0,0,1,2.54-.3,9,9,0,0,0,2.83-.28.72.72,0,0,1,.4-.06c1,.34,2.14,0,3.19.17a16.46,16.46,0,0,0,5.38,0,5.81,5.81,0,0,1,2.16,0,18.36,18.36,0,0,1,2.63.33,3.5,3.5,0,0,0,2.45-.57,8.84,8.84,0,0,1,3-.75,3.9,3.9,0,0,0,2.21-.46.82.82,0,0,1,.52,0,28.22,28.22,0,0,0,4,.23c1.06,0,2.13.13,3.2.18s2.07.47,3.15.2c1.55.82,3.18-.06,4.75.21,1.05.18,2.1-.06,3.13.18a2.22,2.22,0,0,0,1.46,0,.73.73,0,0,1,.52-.05,20.93,20.93,0,0,0,4.84.93,21.11,21.11,0,0,1,2.46.29c.64.19,1.36.07,1.78.76a.19.19,0,0,0,.11.07c1.24-.17,2,1,3,1.19.78.18,1.59.24,2.35.49a4.09,4.09,0,0,0,2.08.27c1.28-.25,2.18.73,3.27,1.09A24.25,24.25,0,0,1,688,333c.87.45,1.91.57,2.64,1.3a.15.15,0,0,0,.12.05c1.77-.22,2.91,1.23,4.43,1.7a7.69,7.69,0,0,1,2.54,1.71,8.92,8.92,0,0,0,2.83,1.49c.72.29,1.56.31,1.84,1.34.13.47,1,.5,1.46.46a1.11,1.11,0,0,1,1.16.47,1.78,1.78,0,0,0,1.34.82,4.37,4.37,0,0,1,2.36,1.19,16.76,16.76,0,0,0,3.4,2.2,9.87,9.87,0,0,1,3.35,2.62,4.8,4.8,0,0,0,1.76,1.46,1.27,1.27,0,0,1,.63.49c.69,1,1.88,1.68,2.24,3a.83.83,0,0,0,.31.43,10.47,10.47,0,0,1,2.85,3.56,6.94,6.94,0,0,1,.38.71,22.05,22.05,0,0,0,2.86,4.69,3.7,3.7,0,0,1,.43.84c.59,1.39,1.48,2.64,2,4.08a2.12,2.12,0,0,0,.9,1.31c.46.27.33.85.57,1.27a12.23,12.23,0,0,1,1.54,3.34,2.9,2.9,0,0,0,.43,1,5.06,5.06,0,0,1,.62,1.2c.22.67.36,1.37.53,2a1.12,1.12,0,0,1-1.11.08c-2.18-.81-3.59.4-4.95,1.82-.33.34-.1.57.06.93.84,1.88,2.74,2.53,4.2,3.68.29.22.63.36.9.6a2.83,2.83,0,0,0,1.88.66,13.1,13.1,0,0,1,3.65.61,10.58,10.58,0,0,0,4.07.79,5.08,5.08,0,0,1,3.76.66c.17.13.47.21.54.38.75,1.83,2.45,3,3.37,4.68.41.77,1.16,1.25,1.59,2a53,53,0,0,0,4.08,5.68A18.82,18.82,0,0,0,757.9,403c.62.56.92,1.33,1.54,1.85a7.85,7.85,0,0,1,1.74,1.46c.09.14.38.22.39.35.18,1.43,1.53,2.05,2.14,3.16a10,10,0,0,0,2,2.54,9.7,9.7,0,0,0,2.56,2.13,1.53,1.53,0,0,1,.67.66,18.66,18.66,0,0,1,1.95,4.38,1.89,1.89,0,0,1,0,1.08c-.34.87.05,1.69.08,2.54a1.83,1.83,0,0,0,.5,1.09c.26.31.35.78.57,1,1.07,1.25.81,2.9,1.43,4.27-.29.89.41,1.61.43,2.44a2.77,2.77,0,0,0,.33,1.16c.36.74.92,1.39.7,2.37-.1.4.3.92.5,1.37a16.24,16.24,0,0,1,1,2.51,14.46,14.46,0,0,0,1,2.11c.28.61.36,1.33,1.08,1.74.38.21.27.83.25,1.28a2.25,2.25,0,0,0,.7,1.85,8.32,8.32,0,0,1,1.83,2.81,6.94,6.94,0,0,0,2.86,3.1,21.88,21.88,0,0,1,5.46,4.73,7.29,7.29,0,0,0,2.43,1.88,13.33,13.33,0,0,1,1.74,1c2.09,1.42,4.17,2.86,6.25,4.3.08.05.14.13.23.15a4,4,0,0,1,2.73,2.58c.17.4.45.71.28,1.21s.1.8.22,1.19c.37,1.24.9,2.43,1.37,3.63a12.62,12.62,0,0,1,1.18,4.17c0,.85-.15,1.94.69,2.66a25.72,25.72,0,0,0,1,3.94,10.83,10.83,0,0,1,0,3.11,2.32,2.32,0,0,1-1.31,1.39,6.82,6.82,0,0,1-3.5.07,10.43,10.43,0,0,0-3.61,0,9.85,9.85,0,0,0-2,.42A27.46,27.46,0,0,0,791.7,491c-.08,0-.2.1-.21.17-.12,1.25-1.54,1.53-1.94,2.59a1.25,1.25,0,0,1-.87.77,1.38,1.38,0,0,1-1.69-.46,17.11,17.11,0,0,0-2.06-1.93c-1.27-1.1-2.69-2.13-3.23-3.87a4.64,4.64,0,0,0-.64-1,6.39,6.39,0,0,1-.91-2.66,10.52,10.52,0,0,0-1.51-4.13,17,17,0,0,0-1.64-2.63,3.45,3.45,0,0,0-1.53-1.06,20.77,20.77,0,0,1-6.23-3.23c-.44-.34-.85-.65-1.42-.14a.86.86,0,0,1-1.31-.11,2,2,0,0,0-2.69-.46l-.26.1c-.44.13-1-.06-1.2.63a2,2,0,0,0,.38,1.64,12.88,12.88,0,0,0,5.28,4.53,19.76,19.76,0,0,1,3.89,2.16,2.74,2.74,0,0,1,.89,1.46c.26,1.05.55,2.1.76,3.16a4.6,4.6,0,0,0,1.15,2.27,3.19,3.19,0,0,1,.85,1.37c.65,2.51,2.48,4.1,4.37,5.64.69.57,1.44,1.09,2.11,1.7a4.83,4.83,0,0,0,2.38,1.47.81.81,0,0,1,.48.23c1,1.27,2.49,1.29,3.92,1.48a14.69,14.69,0,0,1,4.49,1.46,1.05,1.05,0,0,1,.68,1.08,9.24,9.24,0,0,0,0,2.41,7,7,0,0,1-.26,2.28,2.87,2.87,0,0,0,0,2.1,2.72,2.72,0,0,1-.26,2.29c-1-.7-2.23-.84-3.16-1.76a3.54,3.54,0,0,0-2.63-.9,7.66,7.66,0,0,1-3.22-.31,1.08,1.08,0,0,0-.79,0,13.89,13.89,0,0,1-2.65.85c-.89.14-1.45,1-2,1.69-.23.27-.39.62-.63.89a1,1,0,0,1-1.67,0,4.58,4.58,0,0,0-2.42-1.84,16.64,16.64,0,0,1-1.94-1,5.36,5.36,0,0,0-5.18.06,12,12,0,0,1-4.16,1.81,2.63,2.63,0,0,0-1.59,1,17.31,17.31,0,0,0-1.9,2.62,11.73,11.73,0,0,0-1.41,4.44,2.73,2.73,0,0,0,.56,1.91,3.72,3.72,0,0,1,.46.66c.15.36-.22.82-.56.67-.66-.28-1.38-.33-1.7-1.3s-1.43-1.6-2.38-2.11A13.09,13.09,0,0,0,748,518.3a3.09,3.09,0,0,0-.81,0,20.24,20.24,0,0,0-4.22,1.76.55.55,0,0,0-.24.3,11.19,11.19,0,0,1-2.6,3.88c-.42.52-.81.71-1.34.24-1.34-1.2-3.06-1.49-4.69-2a2.6,2.6,0,0,0-1.61.06,26.34,26.34,0,0,1-3.21,1,9.07,9.07,0,0,0-3.14,1.69c-.53.36-1.12.6-1.63,1s-1.23.7-.79,1.6c.16.33-.17.51-.41.59-.94.32-1.1.93-.83,1.81a1.32,1.32,0,0,1-.28,1.4,1.87,1.87,0,0,0-.48,1.09c-.11.54-.52.69-1,.42a.8.8,0,0,1-.31-.26c-.71-1.26-2.1-1.68-3.14-2.52a6.9,6.9,0,0,0-2.54-.9.93.93,0,0,0-.76.22,2.47,2.47,0,0,1-1.29.28,2.64,2.64,0,0,0-2,1c-1.08,1.24-1.89,2.72-3.27,3.77-.6-.66-1.15-1.38-1.81-2a6.3,6.3,0,0,0-4.21-1.95,4.9,4.9,0,0,0-1.68.43,7.44,7.44,0,0,0-3.07,2.21,2.89,2.89,0,0,1-1.84,1.29c-.4,0-.5.48-.61.83a6.16,6.16,0,0,1-1.75,3c-.53.48-.63,1.45-.88,2.22-.52,1.53-1.2,2.08-2.76,2a4.48,4.48,0,0,0-3.31.9c-.37.3-.61.2-.92-.12a4.38,4.38,0,0,1-1.46-4.38,8.74,8.74,0,0,0-.71-4.89,44.91,44.91,0,0,0-2-4.29,28.49,28.49,0,0,0-1.67-2.6,23.17,23.17,0,0,1-1.43-2.58,1.26,1.26,0,0,0-.35-.57,7,7,0,0,1-2-2.17,5,5,0,0,1-1.16-2.09,1,1,0,0,0-.33-.57c-.94-.76-.64-.31-1.76-.69-.47-.08-1.15-.47-1.52-.21-.1,0-.29,0-.34-.11-1-1.72-3-1.9-4.55-2.73a.57.57,0,0,0-.84.41,13.37,13.37,0,0,1-.74,1.74,2.57,2.57,0,0,0,.93,2.66,10.17,10.17,0,0,0,1.26.78,6.94,6.94,0,0,1,1.65,1.19,3.49,3.49,0,0,0,1.41,1,3,3,0,0,1,1.82,1.9,10.2,10.2,0,0,0,2.28,3.32c.27.3.64.53.77.93.51,1.51,1.63,2.71,2.16,4.2a4.12,4.12,0,0,1,.31,1.43,12.87,12.87,0,0,0,.92,3.37c.18.61.37,1.21.53,1.82a.45.45,0,0,1-.12.5.4.4,0,0,1-.59-.1c-.72-.85-.8.66-1.75.95a.74.74,0,0,0-.63.76c0,.59-.58.25-.93.5-.68.54-.8,1.32-1.78,1.37-.27,0-.54,0-.81,0-1-.07-1.26-.21-1.26-1.18,0-1.89-.72-3.62-1-5.45a2.46,2.46,0,0,1-.09-.8c.26-1.36-.58-2.55-.58-3.86a1,1,0,0,0-.32-.58.85.85,0,0,1-.21-1.1,1.21,1.21,0,0,0,0-1.18c-.5-1-.81-2-1.35-2.92a21.79,21.79,0,0,0-4.41-5.1,13.57,13.57,0,0,1-2.37-3.37,13.11,13.11,0,0,0-.93-1.16c-.58-.82-.55-1.07.3-1.61,1.3-.83,2.77-1.34,4.12-2.05,1.6-.85,3.38-1.21,5-2a13.77,13.77,0,0,1,4-.87,2.31,2.31,0,0,1,1.6.65,13.09,13.09,0,0,0,2,1.12,21.76,21.76,0,0,1,2.2,1.54,14.3,14.3,0,0,1,3.1,2.76c.57.71,1.49,1,2.07,1.75a.37.37,0,0,0,.59,0,1.23,1.23,0,0,1,1.3-.46,1.16,1.16,0,0,0,1.17-1.32c-.29-1.94-.66-3.81-2.46-5.08a9.06,9.06,0,0,1-2-2.5c-.79-1.18-1.48-2.5-2.94-3.05a1.39,1.39,0,0,1-.67-.66,6.86,6.86,0,0,0-2.21-1.76,1.32,1.32,0,0,0-1.3-.15c-1.22.68-2.58.3-3.85.62-.55.14-1.14.25-1.71.36a16.23,16.23,0,0,1-2.63.61,2.12,2.12,0,0,0-1.31.64,1.12,1.12,0,0,1-1.29.4c-.37-.11-.68.19-1,.39a12.85,12.85,0,0,1-3.42,1.59A8.22,8.22,0,0,0,655,511.7a1.72,1.72,0,0,1-.9.76,2.41,2.41,0,0,0-1.44,1.37c-.33.84-.92,1.51-1.26,2.36a13.49,13.49,0,0,1-2.89,4.32,2.58,2.58,0,0,0-.46.67,4.75,4.75,0,0,1-2.9,2.49,5.6,5.6,0,0,0-2.36,1.54,8,8,0,0,1-.83.69c-.64.56-1.71-.16-2.22.69s-1.39.85-2.12,1.06c-1.36.4-2.78.85-4.21.15a1.86,1.86,0,0,0-1.07-.15c-1.57.21-3.13-.39-4.71-.12-1.84-.78-4-.23-5.76-1.37a1.89,1.89,0,0,0-1-.21,6.58,6.58,0,0,1-2.4-.4,3.92,3.92,0,0,0-2.53.06,15.25,15.25,0,0,1-4.13.68,12.09,12.09,0,0,0-3.58.54,1.72,1.72,0,0,1-1.2.11,2.94,2.94,0,0,0-2.34.35,7.25,7.25,0,0,1-2,.65,6,6,0,0,0-2.22.57c-.48.31-1,0-1.44,0a10,10,0,0,0-3.09,1.23c-.21.09-.39.28-.6.32-2,.39-3.71,1.59-5.52,2.48a12,12,0,0,0-1.93,1.25,52,52,0,0,0-7.08,6.1c-1.13,1.24-2.64,2-3.78,3.28-2,.74-3.19,2.62-4.94,3.74a4.58,4.58,0,0,0-1.59,1.83,2.38,2.38,0,0,1-.66.85c-1.63,1.21-1.88,3-2,4.81a10.36,10.36,0,0,0,0,1.76,1.25,1.25,0,0,1-.14.91c-.54.76,0,1.4.32,2s1.13.34,1.54-.33c.51-.86,1-1.72,1.46-2.6a4.22,4.22,0,0,1,1.36-1.66,4.43,4.43,0,0,0,1.18-1.1c1-1.5,2.81-1.92,4.13-3a.44.44,0,0,1,.51-.07.5.5,0,0,1,.12.62c-.08.2-.25.38-.32.59a1.19,1.19,0,0,0,.93,1.61,1.81,1.81,0,0,1,1.75,1.22,1.3,1.3,0,0,0,1.88.46c.43-.24.79-.6,1.22-.85.62-.38.95-.31,1.34.28a11.19,11.19,0,0,1,1.8,2.85c.19.64.9,1.05,1.32,1.62s.64,1.57,1.26,2.18a.67.67,0,0,1,0,1,.83.83,0,0,1-1,.18c-.46-.18-.9-.4-1.37-.56a2.15,2.15,0,0,0-.8-.09c-.11,0-.31.15-.3.21.14.89-1.16.91-1.07,1.66a1.39,1.39,0,0,1-.51,1.3c-.43.39-.33.76,0,1.16a7.15,7.15,0,0,0,1,.91,2.13,2.13,0,0,1,.7.61c.6,1,1.21,1.32,2.17,1.11a2.26,2.26,0,0,0,1.95-2,5.78,5.78,0,0,0-.11-2.15,4.86,4.86,0,0,1-.16-1.07c0-1,.2-1.31,1.25-1.61a2.49,2.49,0,0,0,1.92-3.16,9.39,9.39,0,0,1-.17-2.3,1.56,1.56,0,0,1,1.9-1.16.35.35,0,0,1,.19.45,6.25,6.25,0,0,1-.32.89,3.15,3.15,0,0,0,.34,3.44,4.37,4.37,0,0,0,.61.89,1.34,1.34,0,0,1,.39,1.37c-.37,1.82.55,3.11,1.71,4.32l.3.28c.48.43.73,1.31,1.55,1.13,1.16-.25,2.54-.2,3.29-1.35s1.95-.81,3-.89c.6,0,1,.63,1.27,1.12a5.9,5.9,0,0,0,3.49,2.4,2.58,2.58,0,0,0,2.71-1.42,3.41,3.41,0,0,0,.16-1.87c-.07-.32-.14-.68.27-.79s.56.22.73.49a7.56,7.56,0,0,0,.88,1.36c.5.5.65,1.18,1.11,1.69s1.09.62,1.57,1.19a8,8,0,0,0-2.46,1.91,10,10,0,0,1-2.89,2,5.89,5.89,0,0,0-2.7,2.16,2.42,2.42,0,0,1-1.55,1.24,18.8,18.8,0,0,0-3,1.38c-.67.26-1.31.64-2,.85a4.83,4.83,0,0,0-2.5,1.22c-.44.49-1.3.36-2,.24a5.55,5.55,0,0,0-4,.87,2.57,2.57,0,0,1-2.45.25,12,12,0,0,1-2.86-1.22,1.89,1.89,0,0,0-1.13-.4,8.29,8.29,0,0,1-3.29-.76,16.33,16.33,0,0,0-3.32-.62c-1.82-.34-3.64-.71-5.48-.9-1.36-.14-2.62-.65-3.94-.86a6.75,6.75,0,0,0-1.48-.14,6,6,0,0,1-2.27-.27,6.64,6.64,0,0,0-4.27.13c-2.25.7-4.6,1-6.84,1.7a10.89,10.89,0,0,0-2.35,1,3.24,3.24,0,0,1-2.71.56,1.87,1.87,0,0,0-.94,0,1.27,1.27,0,0,1-1.53-.72c-.21-.51,0-.81.8-1.33a1.69,1.69,0,0,0,.23-.2c-.41-.48-.88-.35-1.34-.14a2.78,2.78,0,0,1-3-.08.52.52,0,0,0-.25-.07c-1.87.12-3.35-.94-5-1.56a14.73,14.73,0,0,1-3.52-1.95,3.83,3.83,0,0,0-1.84-.77,4.8,4.8,0,0,1-3.4-2.21,19.2,19.2,0,0,1-2.91-4.05,2.87,2.87,0,0,0-1-1.06,9.2,9.2,0,0,1-2.38-2.55,7.1,7.1,0,0,0-3.54-3,7.29,7.29,0,0,1-2.18-1.75,22.48,22.48,0,0,1-2-2.06,1.67,1.67,0,0,0-.74-.57.67.67,0,0,1-.42-.3c-.67-1.68-2.58-1.92-3.65-3.15a6,6,0,0,1-1.18-1.4,3.69,3.69,0,0,0-2-1.87,1.4,1.4,0,0,1-1.13-1.18c-.11-.69-.75-1.1-1.25-1.56-.22-.2-.62-.32-.48-.73.27-.74-.08-1.22-.5-1.81a10.29,10.29,0,0,1-1-2.36q-.91-2.46-1.8-4.93a3.06,3.06,0,0,0-.74-1.28,1.06,1.06,0,0,1-.36-.55,6,6,0,0,0-1.58-3.3.49.49,0,0,1-.1-.25c.09-1.29-.81-2.13-1.42-3.1a2.09,2.09,0,0,1-.24-1.44,3.87,3.87,0,0,0-.7-2.7,3.16,3.16,0,0,1-.58-2.69,1,1,0,0,0-.11-.77c-.57-1-.76-2.28-1.7-3.15a2.59,2.59,0,0,1-.42-1.13,16.54,16.54,0,0,0-1.1-2.89c-.06-.12-.2-.24-.18-.35.18-1.29-.8-2.27-.92-3.48,0-.42-.39-.58-.65-.82a1.35,1.35,0,0,1-.57-1.41c0-.13.06-.32,0-.39-.68-.75-.6-1.78-1-2.63a26.47,26.47,0,0,1-.93-3.32,6.76,6.76,0,0,1-.1-2.18,1.88,1.88,0,0,0-.09-.93c-.47-.78-.28-1.74-.78-2.5a.66.66,0,0,1,.08-.88c.49-.47.35-1,.34-1.61,0-1.28-.47-2.52,0-3.86a2.7,2.7,0,0,0-.81-2.22,1.43,1.43,0,0,1-.29-1.38,10.81,10.81,0,0,0,.13-3.63,8.53,8.53,0,0,0-.67-2.45,5,5,0,0,1,.14-3.17,8.13,8.13,0,0,0,.32-1.69,11.69,11.69,0,0,1,.2-3.23,1.28,1.28,0,0,0-.11-.65c-.24-.82-.62-1.64.05-2.45a.39.39,0,0,0,0-.38,2.48,2.48,0,0,1-.11-2.09c.33-1.75-.1-3.5.12-5.23a.22.22,0,0,0,0-.14c-.84-1.92.11-3.88-.11-5.82a3.39,3.39,0,0,1,.24-1c.06-.26.24-.63.14-.77-.53-.68-.14-1.29,0-1.92a9.05,9.05,0,0,0,.37-3.07,3.74,3.74,0,0,1,.51-2.6.66.66,0,0,0,.08-.26,28.8,28.8,0,0,1,1.33-4.23c.17-.63,0-1.46.88-1.71l.87-3.44c-.51-.57-.31-.94.32-1.2.11-1.16.83-2.21.65-3.43a3.57,3.57,0,0,1,.34-2,6.49,6.49,0,0,0,.53-3.4.91.91,0,0,1,.08-.65,5.42,5.42,0,0,0,.87-3.3,4.85,4.85,0,0,1,1.08-2.69,9.12,9.12,0,0,0,1.14-3.26,2.58,2.58,0,0,1,.85-1.59,3.39,3.39,0,0,0,1.36-2.4c0-.17.07-.42.19-.48,1.2-.68,1.28-2,1.74-3.07a9.73,9.73,0,0,1,2.95-4.36,12.38,12.38,0,0,0,1.75-2.27c.9-1.12,1.65-2.33,2.51-3.47s1.82-2.45,2.87-3.58a5.18,5.18,0,0,0,1.11-2,5.63,5.63,0,0,1,1.33-2.25c.43-.49,1.12-.81,1.17-1.59a.29.29,0,0,1,.15-.21c1.16,0,1-1.11,1.27-1.73a2.56,2.56,0,0,1,1.16-1.41c.68-.32,1-1.21,1.89-1.2a.27.27,0,0,0,.19-.17c.32-1.49,1.85-2.47,1.71-4.16a2.43,2.43,0,0,1,.14-.92c.05-.19.14-.52.42-.39s.47.11.58-.24a3,3,0,0,1,1.15-1.32,10,10,0,0,0,2.74-2.71c.85-.18.81-1.38,1.73-1.5.17,0,.24-.24.24-.44,0-1.1.85-1.47,1.67-1.58a1.66,1.66,0,0,0,1.32-.9c.56-.83,1-1.78,2.2-2,.48-.09.3-.79.51-1.18s.3-.74.66-.12c.15.25.33.07.38-.09.32-1,1.23-1.22,2-1.51a6,6,0,0,0,3.48-2.95c.65-1.31,2-2,3.1-2.83.13-.1.39-.11.42-.28.14-1.08,1.23-1.26,1.79-1.93a.93.93,0,0,1,.7-.37,2.17,2.17,0,0,0,1.86-1.18c.17-.3.39-.5.77-.38a.91.91,0,0,0,1-.28,9.67,9.67,0,0,1,2.31-1.88c.63-.46,1.08-1.18,1.89-1.43.5-1.34,2-1.57,2.87-2.51a4.75,4.75,0,0,1,3.09-1.77c.18,0,.39,0,.48-.15.58-1.14,1.81-1.36,2.76-2a32.07,32.07,0,0,0,2.9-2.16,13.79,13.79,0,0,1,2.18-1.3c1.13-.62,2.44-.83,3.45-1.66a4.66,4.66,0,0,1,2.28-1.05,7,7,0,0,0,2.94-1.29c1.39-1.06,2.87-.81,4.38-.78,0,.45-.33.45-.57.52a2,2,0,0,0-1.32,1.28,2.85,2.85,0,0,1-2,1.81,3,3,0,0,0-1.44,1.14,21.76,21.76,0,0,0-1.31,2.36,2.53,2.53,0,0,0-.07,1.86c.16.67.13,1.36.26,2a3.36,3.36,0,0,1-.57,2.66,1,1,0,0,1-1.31.51,3.49,3.49,0,0,0-2.64.56c-1.07.6-1.47,1.82-2.58,2.3-.25.11-.25.46-.27.73-.08.9,0,1.81-.2,2.71a1.89,1.89,0,0,0,.24,1,11.45,11.45,0,0,1,.61,1.79,4,4,0,0,0,1.09,2,3.71,3.71,0,0,1,1,1.9,7.79,7.79,0,0,0,1.17,2.73,6.73,6.73,0,0,1,.7,1.89c.37,1.12.36,2.31.78,3.42a2.28,2.28,0,0,1,0,.94c-.11,1.44-.53,2-2,2.06s-3,.48-4.58.1a3.26,3.26,0,0,0-3.32.62,1.64,1.64,0,0,1-1.42.29,4,4,0,0,0-3.18.68,25,25,0,0,0-2.38,1.67,8.06,8.06,0,0,1-2.4,1.2,2.45,2.45,0,0,0-1.21,1,2.35,2.35,0,0,1-.44.68c-1.21,1-1.25,2.31-1,3.69a2.8,2.8,0,0,1,.09,1.34,5.69,5.69,0,0,0,.29,3.71,6.27,6.27,0,0,1,.36,3.32,1.15,1.15,0,0,0,.22.89c.2.35.36.73.53,1.09a1,1,0,0,1-.28,1.33,4.63,4.63,0,0,0-.64,5.27c.43.79.87,1.58,1.27,2.4a8.87,8.87,0,0,0,1.47,2.09c.84.91.57,1.7-.6,2.14a3.94,3.94,0,0,1-1.59.23,2.28,2.28,0,0,0-1.65.5,37.07,37.07,0,0,0-3.41,3.11,4,4,0,0,0-1,3.52c.17,1,.16,2,.37,3a11.76,11.76,0,0,0,1.61,4.4c.93,1.32,2.11,2.49,2.65,4.08a1.39,1.39,0,0,0,.79.71,23.31,23.31,0,0,0,4.62,1.91.77.77,0,0,1,.7.9,12.42,12.42,0,0,0,.59,3.45,8.62,8.62,0,0,1,.43,2.59,6.33,6.33,0,0,0,1.52,4.09,6.88,6.88,0,0,0,3.94,2.63,1.71,1.71,0,0,0,.8.06,4.87,4.87,0,0,1,3.17.39,22.11,22.11,0,0,1,4.47,1.93,1.19,1.19,0,0,0,1.14.21c1.28-.48,2.09.44,3,1.09.2.15.18.4-.06.57-.66.45-.44.81,0,1.28a2.18,2.18,0,0,1,.78,1.4,2.35,2.35,0,0,0,1.26,1.81c1.18.83,2.33,1.7,3.54,2.49.95.62,1.95,1.2,3.15.58a1.49,1.49,0,0,1,1,0c1.2.22,2.35.18,3.05-1.1.28-.51,1-.69,1.06-1.53.35.47.42.86.68,1.15.7.8.65.78-.14,1.41a3,3,0,0,1-1.58.62,4.53,4.53,0,0,0-2.9,2.05c-.22.3,0,.62.11.89a5,5,0,0,0,1.57,1.65,4.48,4.48,0,0,1,.47.28,2.61,2.61,0,0,0,3,.43,1,1,0,0,1,.52-.07.57.57,0,0,1,.6.46.49.49,0,0,1-.34.53c-.59.22-1.19.44-1.79.62-1.76.52-2.31,1.27-2.21,3.15a1.06,1.06,0,0,1-.15.76,1.33,1.33,0,0,0-.21,1c.12,1,.1,1-.86,1.21a3.06,3.06,0,0,0-1,.33c-.84.62-1.54,1.47-.69,2.63.22.3.7.62.49,1a2.81,2.81,0,0,1-1.18,1.26,3.4,3.4,0,0,0-2,4.5,5.8,5.8,0,0,0,.63,1.63c.4.61.35.64-.2,1.59-.55-.35-.91-1-1.71-1-.58,0-1-.21-.63-.92a.37.37,0,0,0-.09-.49c-.25-.15-.42,0-.58.19-.44.48-.45,1.26-1.1,1.62-.09.05-.1.36,0,.51a5.7,5.7,0,0,1,.25,2c0,.88,1.06.7,1.41,1.3.51.9,1.24,1.27,2.24.48a1,1,0,0,1-.37,1.27.87.87,0,0,1-1-.08,1.85,1.85,0,0,1-.32-.25c-.48-.45-.89-1.21-1.66-.9a3.7,3.7,0,0,0-2,1.57c-.61,1.06-1.3,1.15-2.16.27a2,2,0,0,1-.31-.45c-.74-1.29-2.22-1.82-3.07-3a.4.4,0,0,0-.61.05c-.8,1.16-1.84,2.24-1.43,3.85a1.78,1.78,0,0,0,.24.62c.36.51.91.89.86,1.63,0,.23.24.38.46.45.75.21,1.17,1,2,1.14.39.09.59.54.79.9a4.29,4.29,0,0,0,.57,1.06c.62.59.41,1-.15,1.41-.17.13-.43.33-.43.5,0,1.44-.61,2.89.05,4.32l0,0a3.28,3.28,0,0,1-2.3-1.28,1.13,1.13,0,0,0-1.52-.49c-.43.2-.74,0-1.05-.33-.7-.77-1.14-.74-1.87,0a5.93,5.93,0,0,0-1.25,2.08c-.43,1.13-.57,2.36-1,3.51a.87.87,0,0,0,.06.65c.83,1.49,1.57,3.06,3.06,4.05,1,.65,1.79,1.52,2.82,2.1a.9.9,0,0,1,.51.65c-.37.37-.84.22-1.26.24a12.51,12.51,0,0,1-3.11-.27c-.78-.15-1-.5-.78-1.24.47-1.76.1-2.71-1.5-3.69-.38-.24-.69-.44-.53-.95s-.07-.61-.42-.69a1,1,0,0,0-1.19.38c-.14.24,0,.56-.28.83a3.2,3.2,0,0,0-1.89-.38c-.66,0-1.12.27-1.11.9a6.65,6.65,0,0,1-1.12,3,33.31,33.31,0,0,1-8.89-1.6,1.83,1.83,0,0,0-2.53,1.32,2.4,2.4,0,0,1-.85,1.32.76.76,0,0,0-.16,1.19c1,1.07,1.73,2.57,3.32,3.06.22.06.41.24.62.27,2,.19,3.88.86,5.88.81a2.75,2.75,0,0,1,1.69.39,4.16,4.16,0,0,0,1.67.5c1.91.29,3.82.6,5.73.91a1.3,1.3,0,0,1,.51.18c1.36,1,2.93,1,4.51,1a10.6,10.6,0,0,1,1.48.15c.14,0,.31.13.39.08,1.17-.65,2.4.06,3.56-.18a18.49,18.49,0,0,0,3.49-1.06,4.17,4.17,0,0,0,2.29-1.58,2.33,2.33,0,0,1,1.5-1.08,2.94,2.94,0,0,0,1.48-.91,6.22,6.22,0,0,1,2-1.57,1.34,1.34,0,0,0,.79-1.17c.09-.71.37-.79,1-.41m84-92.77a6.74,6.74,0,0,0-.73-.86,2.19,2.19,0,0,1-.82-2.3,25,25,0,0,1,.94-2.93A.58.58,0,0,1,674,411a4.6,4.6,0,0,0,4.71-1.14c.29-.28.62-.54.88-.09.71,1.24,1.84,2.21,2.25,3.65a4.49,4.49,0,0,0,2.86,2.88.74.74,0,0,0,.95-.21c.81-.83,1.37-1.9,2.46-2.46.29-.15.13-.49,0-.72a2.72,2.72,0,0,1-.62-1.19c-.19-1.49-1.23-2.69-1.49-4.17a.81.81,0,0,0-.31-.43,13.79,13.79,0,0,1-2.61-3.82c-1-1.68-2.05-3.05-4.08-3.4-.35-.06-.68-.24-1-.29-1.05-.14-1.85-1-2.91-1.06-.72-.07-1.46,0-1.92-.77a.71.71,0,0,0-.74-.24,19.63,19.63,0,0,1-3.25.12,14.72,14.72,0,0,1-4.58-.41,2.89,2.89,0,0,0-1.72.12,2.38,2.38,0,0,1-1.45.27c-1.06-.3-2.16.07-3.22-.24a1.52,1.52,0,0,0-1.06.15,4.45,4.45,0,0,1-3.19.16,1.93,1.93,0,0,0-1.37.17c-1.16.5-2.39.91-3.59.05a1,1,0,0,0-.91-.07c-1.6.41-3.34.27-4.81,1.22a1.72,1.72,0,0,1-.93.16,5.51,5.51,0,0,0-2.86.73,31.14,31.14,0,0,1-4.32,1.9,22.4,22.4,0,0,1-3.17,1.19c-.48.15-.82.27-1,.78a1.07,1.07,0,0,1-.89.92c-2.15.23-3.27,2-4.34,3.38a28.11,28.11,0,0,1-3.56,3.67,5.26,5.26,0,0,0-1.31,1.42,10.86,10.86,0,0,1-2.24,3.36c-1.36,1.19-1.59,3.18-2.73,4.58a1,1,0,0,0-.14.52c0,1.25-.35,2.48-.31,3.75a23.87,23.87,0,0,1,0,5.41,8.09,8.09,0,0,0,0,2.69,2.94,2.94,0,0,1,0,1.35,2.31,2.31,0,0,0,.06,1.47,31.12,31.12,0,0,1,.84,3.83,7,7,0,0,0,.45,1.7,37.59,37.59,0,0,1,1.57,4.74,7.32,7.32,0,0,0,1.2,2.71c1.17,1.3,1.51,3.11,2.82,4.28a.56.56,0,0,1,.17.36,3.28,3.28,0,0,0,1,2.12,39.14,39.14,0,0,0,3,3.3c.83.83,1.56,1.75,2.44,2.53.13.12.31.28.32.42,0,.89.64,1.32,1.25,1.82a7.09,7.09,0,0,1,1,1.36c-.63.62,0,1.28-.06,1.93a3.15,3.15,0,0,0,1.74,3.12c.42.25,1.3.52.62,1.38-.06.08.05.35.14.49.36.58.74,1.14,1.1,1.71a.83.83,0,0,0,.63.47,9.35,9.35,0,0,1,1.58.39c.31.06.69.18.91-.07.38-.47,1-.4,1.45-.69.8-.49,1-.41,1.62.26a2.88,2.88,0,0,1,.7,1,1.1,1.1,0,0,0,1.05.72,4.37,4.37,0,0,1,1.57.39c1.48.65,2.72,1.72,4.21,2.37s2.95,1.42,4.68,1.1a.82.82,0,0,1,.62.2,5.46,5.46,0,0,0,1.42.45c1.35.45,2.66-.19,4-.14A3.42,3.42,0,0,0,662,480a1.21,1.21,0,0,1,.63-.21,11.4,11.4,0,0,0,3.65-1.39,25.65,25.65,0,0,1,3.89-1.86,14.13,14.13,0,0,0,4.77-2.76c.35-.28.71-.72,1.1-.76a3.32,3.32,0,0,0,2.22-1.57c1.23-1.45,2.64-2.72,3.93-4.1a36.77,36.77,0,0,1,3.14-3,3.42,3.42,0,0,0,1.11-1.13,3.2,3.2,0,0,1,1.17-1.3c.85-.53,1.51-1.28,2.29-1.84,2.46-1.74,4.66-3.9,7.58-4.94a2.23,2.23,0,0,0,.94-.75c.47-.55.92-1.12,1.37-1.68,1.16-1.43,2.1-2.94,1.87-4.9a1.53,1.53,0,0,1,.08-.67,8.14,8.14,0,0,0,.28-3.7,4.55,4.55,0,0,1,.12-1.47,30.43,30.43,0,0,0,.88-5.19,5.65,5.65,0,0,1,.71-2.86,2.18,2.18,0,0,0,0-2.32c-.26-.47-.52-.94-.75-1.43a1.44,1.44,0,0,0-1.48-1,5.55,5.55,0,0,1-1.06-.16c-.23,0-.55-.08-.64.11-.38.75-1.27,1-1.68,1.72a15.47,15.47,0,0,1-2.53,3.17,7.39,7.39,0,0,1-2.36,1.39,1.31,1.31,0,0,1-.23-.85c-.07-.81.24-1.68-.66-2.33-.71-.51-1-1.51-2.08-1.6-.24,0-.51-.12-.52-.36,0-.72-.64-1.33-.41-2.09a1,1,0,0,0,0-.79c-.47-.73-.68-1.57-1.07-2.33a3.56,3.56,0,0,0-1.05-1.23,1.36,1.36,0,0,0-2.06.34,4.65,4.65,0,0,1-.48.66,1.66,1.66,0,0,1-1.37.45c-.49,0-.65-.4-.69-.85s-.4-.57-.78-.58c-.68,0-.83-.43-.81-1a4.26,4.26,0,0,0-.28-2.12,4.7,4.7,0,0,1-.6-1.21,7.13,7.13,0,0,0-1.72-3,1.56,1.56,0,0,0-2.24-.58A5,5,0,0,0,673.89,417.47Zm50-24.2c0-.4.3-.49.46-.7s.47-.4.21-.67a.62.62,0,0,0-.86.05c-.18.13-.25.41-.43.52-.63.36-.89,1.25-1.61,1.36a7.49,7.49,0,0,0-3.88,2.34,26.76,26.76,0,0,1-5,3.84,5,5,0,0,0-2.68,3.07.82.82,0,0,1-.18.36,2.6,2.6,0,0,0-.62,2.26,2.75,2.75,0,0,1,0,.95,4,4,0,0,0,.3,2.76c.5,1.27.58,2.65,1,3.93a1.49,1.49,0,0,1,0,.81c-.39,1.23.21,2.32.55,3.39.48,1.5,1.23,2.9,1.74,4.4a22.5,22.5,0,0,0,1.83,4.3,14.39,14.39,0,0,0,2.39,3.06,15.73,15.73,0,0,1,1.16,1.15,3.58,3.58,0,0,0,2.45,1.27,5.22,5.22,0,0,1,2.2.64,13.26,13.26,0,0,0,4.84,1.91,1.32,1.32,0,0,1,.52.16c1.36.91,3,1.36,4.35,2.19a4.22,4.22,0,0,0,2.11.86c1.25,0,2.34.58,3.53.77a2.15,2.15,0,0,1,1.19.62c1.49,1.49,3.26,2.72,4.42,4.52.32.5,1,.47,1.19,1a3.5,3.5,0,0,0,1.15,1.48,4.19,4.19,0,0,1,1.31,1.86,2.56,2.56,0,0,0,.55.92,5.57,5.57,0,0,1,1.05,2c.33,1.07,1.18,1.93,1.28,3.11,0,.15.2.29.31.43a13.94,13.94,0,0,1,1.85,3,2.25,2.25,0,0,0,.54.76c1.56,1.49,2.77,3.33,4.73,4.38a1.61,1.61,0,0,1,.53.6,9.5,9.5,0,0,0,3.62,3.39l.11.08a1.22,1.22,0,0,0,1.78.08c.7-.54,1.29-.47,1.67.11a2.2,2.2,0,0,0,2,.93c.68,0,1.36.15,2,.18a5.82,5.82,0,0,0,4.1-1.07,23.89,23.89,0,0,0,2.12-1.91,3.58,3.58,0,0,0,1.1-3.2,2.58,2.58,0,0,1,.15-1.71c.08-.15.16-.4.09-.51-.62-1,0-2.32-1-3.17-.08-.07-.14-.31-.09-.36.92-.92-.2-2,.24-3-.57-1-.42-2.22-1.19-3.12a1.24,1.24,0,0,1-.26-.89,10.59,10.59,0,0,0-.55-3.06c-.24-1-1.06-1.9-.86-3.06a.57.57,0,0,0-.25-.46c-.61-.39-.55-1-.55-1.57a4.28,4.28,0,0,0-.55-2.6,3,3,0,0,1-.43-1.55c0-.87.36-1.8-.58-2.45,0,0,0-.18,0-.26a5.38,5.38,0,0,0-.62-3.51,6,6,0,0,1-.52-2.51,6.15,6.15,0,0,0-.17-1.34c-.17-.83-1.11-1.07-1.32-1.84s-.11-1.63-.68-2.31c-.34-.42-.59-.91-.9-1.35-1-1.53-2.43-2.77-3.6-4.18a.85.85,0,0,0-.33-.24c-1.38-.57-2.5-1.62-3.91-2.14a3.66,3.66,0,0,1-1.08-.8,20.25,20.25,0,0,1-3.82-4.83,15.64,15.64,0,0,1-2.11-4.49,1.17,1.17,0,0,0-.29-.6,6,6,0,0,1-1.78-3.28,3.23,3.23,0,0,0-1.58-1.93c-.27-.17-.69-.22-.78-.5-.33-1-1.23-1.46-1.69-2.26a5.92,5.92,0,0,0-3.59-2.48,6.64,6.64,0,0,1-2.8-1.52,2.75,2.75,0,0,0-3.49-.47c-1.06.56-2.23.66-3.29,1.17a1.93,1.93,0,0,1-1.33.14,2.67,2.67,0,0,0-1.82.28,1.91,1.91,0,0,1-1.92.11c-.42-.26-1,0-1.47,0A9.37,9.37,0,0,1,723.87,393.27Zm5.83,95.17c.58-.39,1.25-.23,1.65-.78.7-.94,1.51-1.79,2.16-2.78.45-.7.52-1.57,1-2.18a21.29,21.29,0,0,0,1.82-3.43c.62-1.14.66-2.5,1.36-3.65a1.72,1.72,0,0,0,0-2.05.39.39,0,0,1-.05-.5,10.6,10.6,0,0,0,1-3.35c0-.19.16-.4.34-.34.73.25,1.53,0,2.24.36.24.13.58.25.55.53-.16,1.25.74,2.07,1.17,3.09.25.58.21,1.26.63,1.77a5,5,0,0,1,1,2.22,3.77,3.77,0,0,0,.7,1.61c1.16,1.46,2,3.16,3.78,4.12,1,.57,1.29.67,2.31.07,1.45-.85,2.11-2.32,2.94-3.65a2.92,2.92,0,0,1,1.5-1.31c.51-.21.48-1.32,1.18-1.71.19-.11.41-.18.6-.29a8,8,0,0,0,.93-.57,2.5,2.5,0,0,0,.21-3.87,4.08,4.08,0,0,0-2.17-1.31.88.88,0,0,1-.85-.88c0-.36-.2-.78-.59-.85a3.67,3.67,0,0,1-2.59-2.36.65.65,0,0,0-.25-.31c-1.51-.68-2-2.15-2.64-3.46-.57-1.13-.6-2.41-1.18-3.56a6.14,6.14,0,0,0-2.4-2.82,2.9,2.9,0,0,1-.92-.78c-.9-1.14-2.43-1.7-3-3.18-.07-.19-.32-.33-.51-.43a2.82,2.82,0,0,1-1.33-1.64,4.4,4.4,0,0,0-.54-.94c-.9-1.4-1.94-2.71-2.71-4.2a5,5,0,0,0-2.31-2.41,1.73,1.73,0,0,1-.75-.57c-.58-1-1.63-1.06-2.55-1.37a1.75,1.75,0,0,0-1.19.07c-1.21.49-2.43,1-3.66,1.39-1.67.6-3.5.87-4.65,2.44a.94.94,0,0,1-.23.16,5.12,5.12,0,0,0-2.2,3.56,21.79,21.79,0,0,0-.13,5.41c0,.22.2.51,0,.63-.66.37-.51,1.11-.81,1.61a30.1,30.1,0,0,0-1.88,4,4.63,4.63,0,0,1-.9,1.51c-1.37,1.36-1.69,3.23-2.31,4.93a6.36,6.36,0,0,0-.24,3.71,12.22,12.22,0,0,1,.36,3.49,11.23,11.23,0,0,0,.09,2.84c.32,1.48,1,2.88.91,4.47a.9.9,0,0,0,.32.57,3.43,3.43,0,0,1,.77,1.26,7,7,0,0,0,1.44,2.23c.56.62,1.26,1.2,1.18,2.19,0,.15.14.33.26.46.54.61,1.06,1.24,1.63,1.81a7.79,7.79,0,0,0,2.76,1.92,17,17,0,0,1,3.51,1.71c.15.09.4.24.48.18.84-.59,1.4.17,2.1.35,1.66.44,2.36.49,3-.78a.59.59,0,0,1,1-.23c.91.66,2.11.5,3,1.18a.48.48,0,0,0,.79-.2c.29-.94,1.08-1.26,1.85-1.66.42-.22,1-.4,1.11-.92a14,14,0,0,1,.84-2.38,2.11,2.11,0,0,1,1.26-1.48,1.73,1.73,0,0,0,1.09-1.3c.32-1.57.9-3.17-.09-4.72-.07-.11-.17-.29-.13-.36.59-1,0-1.2-.82-1.4a1.52,1.52,0,0,1-.64-.5,1.07,1.07,0,0,0-1.34-.24,3.15,3.15,0,0,0-1.17.66,1.37,1.37,0,0,1-1.19.51c-.27,0-.6,0-.61.37,0,.88-.45,1.73-.06,2.66.6,1.44.06,1.91-1,2.53a2,2,0,0,0-1,1.18,4,4,0,0,1-1.41,2C731.36,490.1,732,490.37,729.7,488.44Zm-40.94-136.7a1.65,1.65,0,0,1-1.2.32,12.37,12.37,0,0,0-4.14.79,6.57,6.57,0,0,1-1.69.47,14.53,14.53,0,0,0-2.47.68,31.27,31.27,0,0,1-4.29,1.24c-1.74.29-3.36,1-5.08,1.33a13.83,13.83,0,0,0-3.34,1.06,52.48,52.48,0,0,1-5.25,2.07c-1.37.51-2.6,1.35-4,1.92-.45.18-.87.43-1.34.61a21.29,21.29,0,0,0-4.09,1.76c-1,.65-2.28.88-3.13,1.8-2.09.46-3.81,1.84-5.87,2.37-.39.1-.57.43-.75.75a6.36,6.36,0,0,0-.49,3.81,2.68,2.68,0,0,0,1.86,2.34,5.47,5.47,0,0,0,4.82.17c1.36-.64,2.91-.91,4-2.1A4.8,4.8,0,0,1,655,371.6c1.83-.31,3.31-1.4,5-2,2-.78,3.89-2,6-2.67a9.78,9.78,0,0,0,2.69-1.2c1.21-.83,2.77-.78,4-1.61,2.09-.15,3.88-1.32,5.93-1.72a45.09,45.09,0,0,0,6.35-2.21,4.62,4.62,0,0,1,1.17-.33,16.08,16.08,0,0,0,4.85-.92,5,5,0,0,1,1.19-.25,1.29,1.29,0,0,1,1.58.73c.88,1.44,2.08,2.72,2.39,4.47a.84.84,0,0,0,.19.36c1.06,1.15,1.76,2.65,3.15,3.48,1.06.64,2.11,1.65,3.43.45,0,0,.09,0,.13,0,.78-.34,1-.66.94-1.41a20,20,0,0,1-.07-2.44,3.74,3.74,0,0,0-.69-2.28,11.13,11.13,0,0,1-1.94-3.93,26.26,26.26,0,0,1,5.27-.39,4,4,0,0,1,2.16.68c.26.18.72.44,1,.09.41-.54,1-1,.78-1.88a11.32,11.32,0,0,0-1.82-3.86,4.3,4.3,0,0,0-2.39-1.65,6.56,6.56,0,0,0-1.86-.29c-1.84.06-3.66-.29-5.53-.09a6.59,6.59,0,0,1-4.06-1.2.88.88,0,0,1-.5-.61,2.43,2.43,0,0,0-1.39-1.74,3.93,3.93,0,0,1-1.82-2.25c-.31-.91-1.33-1.15-1.79-1.92a.39.39,0,0,0-.38-.08c-.69.31-.94-.25-1.3-.62a1.77,1.77,0,0,0-2.41-.18,8.41,8.41,0,0,1-1.71,1.5c-.5.3-.44.75,0,1.12a10,10,0,0,1,.85,1.18c.59.71.93,1.68,1.85,2.08.54.23,1.31.32,1.26,1s.78.87.66,1.49S688.36,351.37,688.76,351.74ZM639.54,341c-1.56,1.05-3.4,1.68-4.64,3.18a.74.74,0,0,1-.46.26c-1.53.12-2.47,1.25-3.54,2.1a2.4,2.4,0,0,0-.16,3.45c.1.14.25.31.24.46-.06,1.44,1.09,2,2,2.7a2.78,2.78,0,0,0,2.91.19c1.72-1.14,3.09-2.79,5.1-3.5a1,1,0,0,0,.44-.31,6.32,6.32,0,0,1,1.72-1c.76-.4,1.09-.32,1.62.4.8,1.09,1.53,2.24,2.3,3.35a2.74,2.74,0,0,1,.48,1.25,6.15,6.15,0,0,0,2.59,4.13c.83.67,1.86,1.11,2.73,1.76.44.34.64.1,1-.21a6.16,6.16,0,0,0,1.85-4.48c.09-1.14.07-2.2-1-3s-1.09-1.94-1.54-3c-.16-.37-.19-.85-.65-1-.94-.25-1.1-1.24-1.74-1.79a.58.58,0,0,1,.19-1c1.11-.35,1.87-1.47,3.19-1.37.23,0,.48-.22.73-.31.88-.33,1.61-1.09,2.45-1.32a45.39,45.39,0,0,0,4.6-1.59,11.83,11.83,0,0,0,1.84-.56,9,9,0,0,1,5.62-1.37,2.2,2.2,0,0,0,1.33-.18c1.72-.94,3.65-.6,5.49-.87a.59.59,0,0,1,.26,0c1.23.49,2.51-.13,3.75.16a.49.49,0,0,0,.38-.09,3.23,3.23,0,0,1,1.55-.44,1.61,1.61,0,0,0,1.48-1,1.76,1.76,0,0,0-.46-1.86c-.77-.89-1.85-1.45-2.51-2.45a.57.57,0,0,0-.73-.21,1.36,1.36,0,0,1-1.5-.31,1.12,1.12,0,0,0-.62-.2c-1.93,0-3.85,0-5.77.09-.84,0-1.66.5-2.52.09a.6.6,0,0,0-.64.15c-.37.37-.84.22-1.27.3a37.55,37.55,0,0,0-6.32,1.23,11.17,11.17,0,0,1-2.19.7,2.24,2.24,0,0,0-1.18.63c-.54.49-.95,1.28-1.86.63-1.66.55-3.48.61-5,1.59a2.56,2.56,0,0,1-2.17.51c-.46-.14-.74.12-1.09.36-.95.66-1.44.61-2.23-.19a6.12,6.12,0,0,1-1-1.25A9.64,9.64,0,0,0,639.9,332c-2.13-1-2.4-.87-3.22,1.23-.13.34-.2.7-.32,1a1,1,0,0,0,.09.91,10.49,10.49,0,0,0,1.45,2.09A4.77,4.77,0,0,1,639.54,341Zm-31.12,60.47c0,.36,0,.72.08,1.08.12,1,.12,1,1.27,1.27a.54.54,0,0,1,.32.21c.41.58.78.26,1.13,0s.3-.59.62-.69c1.09-.35,1.42-1.31,1.85-2.2.15-.32.17-.76.54-.92a5.12,5.12,0,0,0,1.73-1.67,7.63,7.63,0,0,1,2-1.62,5.6,5.6,0,0,0,1.73-1c1.23-1.43,3-2,4.62-2.71a5.48,5.48,0,0,0,3-2c.2-.35.55-.41.89-.54a16.92,16.92,0,0,0,2.09-.55c1.59-.85,3.19-1.68,4.79-2.51.48-.25,1.12-.34,1.43-.71a1.88,1.88,0,0,1,1.83-.56c.59,0,1.17.09,1.75.18a1.24,1.24,0,0,0,1.42-.54,1.32,1.32,0,0,0-.19-1.63c-1.17-1.24-2.43-2.3-4.27-2.33-.44,0-.89-.23-1.33-.2-.71.05-1.37-.54-2.09-.14a2.71,2.71,0,0,1-2.23.12c-.74-.23-1.48-.41-2.22-.62-.26-.07-.54-.27-.78-.07-.7.57-1.6.72-2.33,1.31-1.86,1.5-2.3,1.57-3.78-.68a.34.34,0,0,1-.06-.12c-.44-1.5-1.74-1.52-2.94-1.7a.55.55,0,0,0-.63.41,1.93,1.93,0,0,0,0,1.71c.72.95.82,2.34,2,2.93a.55.55,0,0,1,.21.82.56.56,0,0,1-.92.16,14.27,14.27,0,0,0-1.59-.74.84.84,0,0,0-1,0c-.45.34-.89.63-1.44.13-.18-.17-.41,0-.59.15-1.34,1.23-1.54,2-.94,3.72.07.21.18.41.24.63.23.84.14,1-.62,1.51a4.16,4.16,0,0,0-.73.6,19.06,19.06,0,0,0-3.72,5.28A9.13,9.13,0,0,0,608.42,401.46Zm107.45,116.1c-.21-.75.12-1.64-.36-2.44s-.76-1.64-1.16-2.44a11.27,11.27,0,0,0-2.75-3.81c-.17-.15-.41-.43-.52-.39-.82.29-1-.34-1.45-.79a5.9,5.9,0,0,0-1.55-1.3c-1.48-.75-2.24-.35-2.37,1.26a1.85,1.85,0,0,0,0,.94,12.37,12.37,0,0,1,.84,3.53,24.11,24.11,0,0,0,1.16,2.7,5.49,5.49,0,0,0,1.46,2.56,1.69,1.69,0,0,1,.45.66c.56,1.64,2,2.62,2.93,4,.38.57.76.52,1.19,0a2.14,2.14,0,0,1,1.11-.68c.62-.24,1.2-.71,1.07-1.4A13.13,13.13,0,0,1,715.87,517.56Zm34.81-17.06c-.79.19-1.58.37-2.37.58-.28.07-.41.34-.53.58s-.26.58-.41.86c-.8,1.4-.75,1.39-.53,3,.15,1.06.25,2.07,1.32,2.64.1.05.15.22.2.35a2.22,2.22,0,0,0,1.83,1.43c.79.11,1.69.43,2.36-.41.13-.16.41-.18.6-.3,1-.62,2-1.21,1.76-2.62a1.73,1.73,0,0,1,.35-1,2.19,2.19,0,0,0,.11-1.72A5.51,5.51,0,0,0,750.68,500.5Zm11.56-10.38a1.94,1.94,0,0,0-.35,0c-2,.1-2.9,1.33-2.33,3.26a3.74,3.74,0,0,1,.22,1.19,1.19,1.19,0,0,0,.42,1,3.77,3.77,0,0,1,1.12,2.39,4.71,4.71,0,0,0,2.88,3.62,2.16,2.16,0,0,0,2.16-.22c.7-.38.65-1.16.45-1.82a2.67,2.67,0,0,1,.06-1.7,2.32,2.32,0,0,0-.23-2.19,2.2,2.2,0,0,1-.31-1.57,1.52,1.52,0,0,0-.47-1.19c-.5-.63-1.34-.89-1.72-1.61A1.76,1.76,0,0,0,762.24,490.12Zm-24.38,19.15c.21-.67,0-.88-.29-1.06a14.56,14.56,0,0,1-2.23-1.51.91.91,0,0,0-.76-.19c-.53.09-1.07.15-1.61.21-.32,0-.69,0-.84.35-.43.88-1.09.64-1.71.37s-1-.29-1.26.44c0,.18-.2.27-.35.39a1.32,1.32,0,0,0-.19,2.18,4.09,4.09,0,0,1,.86,1.2c.54,1.57,2,2.23,3,3.34a.81.81,0,0,0,1.31-.07,6.41,6.41,0,0,1,2.35-1.85,7.05,7.05,0,0,1,1.16-.68.84.84,0,0,0,.63-1A9,9,0,0,1,737.86,509.27Zm-160.39-25.1A1.56,1.56,0,0,0,579,482a10,10,0,0,1-.46-1.53,1.64,1.64,0,0,0-2.1-1.32c-1.31.38-1.75,1.13-1.34,2.31.16.46.4.89.53,1.38A2.21,2.21,0,0,0,577.47,484.17Z" style="fill:#fc9db2"/><path d="M782.6,561a1,1,0,0,1,1.27.05c1.86,1.12,4,1.36,6,2a2.55,2.55,0,0,0,2.88-.65,2.9,2.9,0,0,1,2.33-.9,1.92,1.92,0,0,0,2-1.12,2.85,2.85,0,0,1,1.71-1.45c.92-.29,1.35-1.31,2.26-1.67.17-.06.17-.29.15-.48s-.05-.45-.06-.68c0-1.31,0-1.39,1.23-1.59,1-.16,1.8-.84,2.81-.91l.08.08-.12,0a3.35,3.35,0,0,1,1.89-1.58,5.72,5.72,0,0,0,3.2-2.78c.64.48,1,1.2,1.71,1.41.19.06.24.25.3.43a15.57,15.57,0,0,0,3.92,6.2c.85.88,1.62,1.82,2.42,2.74a5.81,5.81,0,0,0,1.45,1.21,3.41,3.41,0,0,1,1,.72,9.77,9.77,0,0,0,3.66,2.66,12,12,0,0,1,2.19,1.32,5.06,5.06,0,0,0,2.32,1,17.64,17.64,0,0,1,2.16.81c1.75.6,3.6.84,5.38,1.3,2.46.62,4.84,1.45,6.46,3.66.51.69,1.19,1.23,1.19,2.19a.77.77,0,0,0,.32.58,5.35,5.35,0,0,1,1.69,3,11.28,11.28,0,0,1,.68,6.24c0,.2,0,.56.08.64.65.4.3.63,0,1.06s-.78.69-.59,1.29a.42.42,0,0,1-.1.36c-1,.77-1,2.08-1.74,3a2,2,0,0,0-.5,2.12c.19.43-.19.77-.55,1a6,6,0,0,0-2.5,3.61,1.32,1.32,0,0,1-.72.76c-.38.22-1,.3-.64,1,0,.05-.15.2-.25.3-.49.51-1.28.79-1.64,1.3a5.23,5.23,0,0,1-1.45,1.37,5.38,5.38,0,0,0-1.6,1.16c-.05.07-.17.18-.19.17-.75-.52-1.19.32-1.77.37a1.19,1.19,0,0,0-1,.58c-.48.56-1.22.33-1.83.46a16.36,16.36,0,0,1-1.85,0,28,28,0,0,0-2.84.69c-1.57.31-2.91,1.38-4.59,1.26a1.45,1.45,0,0,0-.73.33c-.75.52-1.47,1.09-2.47.69a.29.29,0,0,0-.26,0c-.76.78-1.84.9-2.75,1.35-1.31.65-2.63,1.28-3.94,1.91a21.74,21.74,0,0,1-2.35.53,22.78,22.78,0,0,0-4.17,2.29c-.29.18-.52.62-.78,0-.06-.14-.27-.06-.31.09-.19.71-.72.61-1.28.64-1.39.08-2.54.89-3.79,1.4-.21.08-.33.41-.48.63-.24.38-.5.62-1,.41-.25-.1-.65-.09-.74.16-.37,1-1.5.75-2,1.41a.4.4,0,0,1-.49.12c-.71-.28-1.1.06-1.38.67s-1.1.58-1.67.69a1.21,1.21,0,0,0-.92.44,2.64,2.64,0,0,1-2.09,1,1.37,1.37,0,0,0-1.06.49,4.1,4.1,0,0,1-2.06,1.36,5.84,5.84,0,0,0-1.76,1,1,1,0,0,1-1,.31,1.62,1.62,0,0,0-1.38.44c-2.17,1.46-4.8,2-6.94,3.49-.26.18-.54,0-.79.11-.49.17-1.07.15-1.44.65s-.77.77-1.38.42c-.07,0-.23,0-.26,0-.78,1-2.06.49-3,1-.27.17-.52.06-.78.1a1.9,1.9,0,0,0-1.34.57c-.38.58-1,.63-1.51.78-.72.19-1.53.17-1.84,1.11-.08.27-.49.39-.82.39a3.42,3.42,0,0,0-2.31,1c-.59.52-1.24.92-2,.3a1,1,0,0,0-1-.09,33.21,33.21,0,0,0-4,1.5,4.3,4.3,0,0,1-3,.51,2,2,0,0,1-.52-.15c-.68-.31-1.17.51-1.78.35a9.67,9.67,0,0,0-1.8-.31,19.86,19.86,0,0,0-4.57.57c-1.61.25-3.06-.41-4.62-.45-2.7-.08-5.37.09-8.06.16-1.16,0-2.33.34-3.54-.29s-2.47-.36-3.73-.29c-.18,0-.35.09-.53.11-.6.09-1.07-.64-1.6-.39A2.64,2.64,0,0,1,715,637c-.49-.09-1-.28-1.39.15-.22.23-.51.09-.75,0a9.56,9.56,0,0,0-3.71-1.18c-.81-.08-1.58-.56-2.46-.27a.68.68,0,0,1-.49-.19,2.4,2.4,0,0,0-1.82-.38,7,7,0,0,1-4.53-1.07c-.19-.1-.39-.43-.56-.29-1,.78-1.71-.12-2.41-.54a4.18,4.18,0,0,0-2.53-.67,4.39,4.39,0,0,1-1.86-.56c-1.15-.51-2.31-1.1-3.48-1.49-1.71-.57-3-1.91-4.86-2.18-1.5-.22-2.58-1.48-4.1-1.62a7.62,7.62,0,0,0-2.49-1.57,18.92,18.92,0,0,0-4.07-1.78c-1.26-.23-2.3-1.22-3.67-1a.85.85,0,0,1-.72-.31,9.19,9.19,0,0,0-2.19-1.32,32.91,32.91,0,0,1-2.91-2c-.15-.1-.28-.33-.42-.33a4.94,4.94,0,0,1-2.88-1.35c-1.45-1.05-3.12-1.61-4.59-2.57a5.34,5.34,0,0,0-1.94-.92,1.58,1.58,0,0,1-.93-.49c-1.47-1.65-3.17-3.09-4.53-4.84a4.72,4.72,0,0,0-.86-.87,2.83,2.83,0,0,1-1.28-1.82,1.78,1.78,0,0,0-.46-.81,18.35,18.35,0,0,1-3.58-6,4.44,4.44,0,0,0-.67-1.32,10.5,10.5,0,0,1-1.55-3.28,8.22,8.22,0,0,0-1.27-2.83,1.3,1.3,0,0,1-.18-.64,3.85,3.85,0,0,0-.89-1.93,11.34,11.34,0,0,1-1.4-2.78,26.81,26.81,0,0,0-1.53-3.31,3,3,0,0,1-.36-1,8.14,8.14,0,0,0-2-3.78,3.38,3.38,0,0,1-1.13-2,1,1,0,0,0-.52-.75,2.48,2.48,0,0,1-1.37-2.18c0-.56-.51-.84-.73-1.27-.47-.93-1-1.83-1.44-2.75a1.68,1.68,0,0,0-1.32-1.06c-1.35-.1-2.07-1-2.8-1.95a4.49,4.49,0,0,0-1.64-1.57c-.36-.15-.51-.49-.71-.79-.91-1.4-1.84-2.79-2.76-4.18a1.09,1.09,0,0,0-.6-.52,5.52,5.52,0,0,1-2.73-2.15,20.25,20.25,0,0,0-3.64-3.17,9.41,9.41,0,0,1-2.68-2.62c-.3-.57-1.12-.87-1.72-1.28-.22-.15-.54-.19-.71-.38-1.78-1.95-4.34-2.85-6.21-4.68a3.48,3.48,0,0,0-1.45-.72,9.07,9.07,0,0,1-2.45-1.13,8.06,8.06,0,0,0-4.78-1.07,1.57,1.57,0,0,0-.65.13,3.51,3.51,0,0,1-2.93.35,2.77,2.77,0,0,1,1.15-1.26,16.92,16.92,0,0,1,2.56-1.52c1.48-.67,3-1.23,4.52-1.85a44.13,44.13,0,0,1,4.91-1.37c1.87-.54,3.77-.87,5.65-1.36,1.69-.44,3.46-.6,5.19-.89a10.47,10.47,0,0,0,1.87-.35,5.91,5.91,0,0,1,2.68,0,.88.88,0,0,1,.84.91c0,1.65.94,3.11,1.09,4.74a5.51,5.51,0,0,0,1.87,3.08c1,1.13,2.2,2.15,3.32,3.2a1.2,1.2,0,0,0,1.21.45,2.45,2.45,0,0,1,2.06.45,3.92,3.92,0,0,0,2.6.46c.27,0,.52-.19.8-.1,2.61.82,5.34.6,8,.92a5.68,5.68,0,0,1,.93.19,1.84,1.84,0,0,0,1.69-.14c.11-.08.29-.21.35-.17.92.64,1.22-.36,1.74-.69a8.75,8.75,0,0,0,3.41-4.57,10,10,0,0,0,.41-2.23,13.1,13.1,0,0,1,1.38-4.18c.55-1.14,1.38-2.24,1.37-3.62a1.37,1.37,0,0,1,.71-1.1,1.31,1.31,0,0,0,.6-1.29c-.09-.69.45-1.47.16-2-.66-1.2.1-1.74.7-2.54.89-1.18,1.66-2.47,2.57-3.64.51-.65.72-.65,1.12.08a5.21,5.21,0,0,1,.38.87,11.63,11.63,0,0,0,3,4.27c1.67,1.72,2.07,3.87,2.31,6.08.09.81.1,1.62.23,2.42.22,1.34.37,2.68.51,4a8,8,0,0,0,.56,2.5,5.37,5.37,0,0,1,.26,2.14c0,2.38.92,4.55,1.52,6.79.49,1.85.59,3.74.93,5.61a9.4,9.4,0,0,0,.08.94,10.34,10.34,0,0,1,.19,4.92,5.86,5.86,0,0,0,.67,3.94,6.66,6.66,0,0,1,.81,2.42,8.65,8.65,0,0,0,1.67,3.08c1.2,1.95,2.49,3.85,3.74,5.78a29,29,0,0,0,6.31,6.74c.09.09.24.2.33.18,1.49-.3,2.68.57,4,1a.67.67,0,0,0,.82-.23,15,15,0,0,0,2.29-3.16,4.52,4.52,0,0,1,2.12-2.36c.5-.22.65-.74,1-1.07s.72-.37,1,.12a5.94,5.94,0,0,1,.86,1.68,1.11,1.11,0,0,0,.41.83c1.54.83,2,2.58,3.29,3.66a5.14,5.14,0,0,0,2.92,1.53c.75.07,1.3.61,2,.74a1.74,1.74,0,0,0,1.76-.34,16,16,0,0,1,2.37-1.39c.84,1.93,2.48,3,4,4.23a2,2,0,0,0,2.31.06,13.56,13.56,0,0,1,3.35-1.44c1-.28,1.63-1.14,2.64-1.36.22,0,.25-.35.35-.55A19.09,19.09,0,0,0,718,581a1,1,0,0,1,.14-.27c.12,0,.29,0,.36.08a13.84,13.84,0,0,0,3.49,2.72,8.11,8.11,0,0,0,3.17,1.42,1.41,1.41,0,0,1,.63.23c.77.59,1.43.72,2-.28.16-.29.48-.21.73-.09.41.2.79.44,1.2.62a1.74,1.74,0,0,0,2.12-.38c.63-.69,1.62-1,1.93-2,0-.11.2-.17.28-.28.35-.41,1.1.1,1.27-.46a3.11,3.11,0,0,1,.58-1.33,6,6,0,0,0,1.64-3.21,4.87,4.87,0,0,1,1.67-3.24,2.17,2.17,0,0,0,.77-1.9c-.07-1,.36-1.2,1.26-.75.48.24.94.54,1.4.82a2.8,2.8,0,0,0,1.49.6.81.81,0,0,1,.49.19c1.49,1.53,3.47,1.74,5.42,2a2.93,2.93,0,0,1,.79.18,3,3,0,0,0,2.25,0,2.11,2.11,0,0,1,.91-.21c1.29.29,2.1-.64,3-1.17a2.1,2.1,0,0,0,.82-1.5,5.75,5.75,0,0,1,1-2.33c.61-.89,1-1.89,1.58-2.82a4,4,0,0,0,.22-2.23,5.63,5.63,0,0,1,.77-3.06,33.25,33.25,0,0,0,4.11,2.11,12.73,12.73,0,0,0,3.36,1,16.94,16.94,0,0,1,4.2.9,3,3,0,0,0,2.39,0c1.68-.76,3.33-1.59,5-2.39a.86.86,0,0,0,.4-.35,2.56,2.56,0,0,1,1.66-1.65c.47-.16.22-.6.12-.94Zm-1,30.42c.07.55.86.76.76,1.46-.24,1.58.34,3.05.62,4.57.21,1.1.93,2.23.17,3.39a.35.35,0,0,0,.07.48,7.65,7.65,0,0,0,1.25,1.23c1,.66,2.08,1.36,3.48.8a20.13,20.13,0,0,1,3-.72c1.81-.43,3.28-1.26,3.87-3.19a1.69,1.69,0,0,1,1.72-1.25c1.44-.07,2.94,0,4.2-.91.13-.11.23,0,.33.11.34.38.58.21.89-.1a2.12,2.12,0,0,1,1.72-.88c1,.09,1.26-.17,1.22-1.18a4.2,4.2,0,0,0-1.21-2.37c-.27-.36-.69-.64-.69-1.13,0-.84-.58-1.11-1.22-1.19a4,4,0,0,1-2.62-1.76c-.38-.44-.4-1.19-1-1.37s-1.19.43-1.65.72a2.59,2.59,0,0,1-2.42.14,2.92,2.92,0,0,1-1.78-1.92c-.08-.26-.21-.55,0-.79.71-1,0-1.59-.63-2.18a7.08,7.08,0,0,1-1.45-1.59c-.22-.4-.52-.89-1-.82s-.69.65-.85,1.12c-.07.21-.1.44-.18.64a1.27,1.27,0,0,1-.85.79A5.05,5.05,0,0,0,784,586a1.22,1.22,0,0,1-.55.57c-.15.09-.38.22-.32.39.38,1.14-.81,2.2,0,3.42.38.61-.07,1-.91,1C782,591.34,781.8,591.24,781.6,591.45Zm-26.46-7.37c0-1.51-.09-1.64-1.31-2.09a2.86,2.86,0,0,1-1.19-.88A16.84,16.84,0,0,0,750,579a.93.93,0,0,0-1.42.17,2.39,2.39,0,0,0-.63,1,6.16,6.16,0,0,1-.69,1.44c-.29.56-.87.93-1,1.55a5,5,0,0,0,1,4.31,10.67,10.67,0,0,1,1.36,2.13c.37.83,1.2,1.46,1.08,2.51a.53.53,0,0,0,.3.42c1.07.38,1.7,1.33,2.57,2,1.62,1.14,2.72.82,4.23-.45a.86.86,0,0,0,.22-1.29,2.62,2.62,0,0,1-.44-2.08,3.78,3.78,0,0,0-.51-2.84C755.45,586.56,754.31,585.42,755.14,584.08Zm18-9.41c.06-.78-.24-1.08-1-1a2,2,0,0,0-.82.41c-1,.71-1.59.61-2.42-.36-.17-.2-.33-.43-.51-.63a1.67,1.67,0,0,0-2.82.23c-.19.3-.27.66-.62.85-1,.5-1,1.65-1.62,2.4a.71.71,0,0,0,0,.65,26.4,26.4,0,0,0,1.89,3.12,4.3,4.3,0,0,0,2.91,1.7,2,2,0,0,1,1.18.61c1,.92,2.19.7,3.33.75a1.13,1.13,0,0,0,1.24-.85,1.11,1.11,0,0,1,.5-.61,1.77,1.77,0,0,0,.67-1.91,10,10,0,0,0-1.17-3.14A4.21,4.21,0,0,1,773.18,574.67Zm-53.87,18.88c-.23,1.71.86,2.64,2.13,3.44a3.34,3.34,0,0,1,.69.42c.71.81,1.83.54,2.58.94,1.55.85,1.33-.82,2-1.15a3,3,0,0,0,.7-.63.72.72,0,0,0,.27-.73,8.51,8.51,0,0,0-1.39-3.5,23.29,23.29,0,0,0-3-2.72c-.63-.52-1-.4-1.59.22a9.71,9.71,0,0,1-1.8,2C719.32,592.23,718.88,592.73,719.31,593.55Zm86.46-35.47a4.31,4.31,0,0,1-1.84,2.82c-.95.56-1.06,2.64-.35,3.5.92,1.13,2.44,1.32,3.5,2.24a.15.15,0,0,0,.13,0c1.19-.25,2.44,0,3.59-.53a1.27,1.27,0,0,0,.89-1.23c0-.59,0-1.18,0-1.76a1.73,1.73,0,0,0-.8-1.6,14.44,14.44,0,0,1-2.59-2.15A3.3,3.3,0,0,0,805.77,558.08Z" style="fill:#fc9db2"/><path d="M738.21,549.09a6.78,6.78,0,0,0-2.08.53,4.72,4.72,0,0,1-2,.44c-.71,0-1.52-.18-2,.67-.17.29-.66.25-1,.25a2.86,2.86,0,0,0-1.42.36c-.69.39-1.41,0-1.3-.8a5.13,5.13,0,0,0-.3-2.11,8.65,8.65,0,0,1-.3-2.15,8.06,8.06,0,0,0-1.14-4.13,3.43,3.43,0,0,1-.43-2.46,18.91,18.91,0,0,0,.45-2.81,3.22,3.22,0,0,1,.35-1.29c.46-.87.81-1.77,1.18-2.67a3.92,3.92,0,0,1,2.51-2.3,6.42,6.42,0,0,0,2.33-1,2.1,2.1,0,0,1,2.13-.31c1.43.41,2.74,1,2.95,2.75.1.93.69,1.78.55,2.76a.63.63,0,0,0,.39.65c.28.16.6.31.71.61a37.48,37.48,0,0,0,2.35,4.26,12.61,12.61,0,0,1,1,4.6c.08.65.68,1.4.15,1.94a6.75,6.75,0,0,1-2.26,1.45c-.68.28-1.54.12-2.07.86C738.81,549.39,738.48,549.08,738.21,549.09Z" style="fill:#fc9db2"/><path d="M749.15,544.36c-.59-1.28-.61-2.56-1.14-3.74-.72-1.62-1.79-3-2.64-4.56A3.88,3.88,0,0,1,745,533a16.63,16.63,0,0,0,.45-2.12,5.8,5.8,0,0,1,1.54-3.07c.79-.85,1.56-1.71,2.41-2.51a1.1,1.1,0,0,1,1.08-.33,12.71,12.71,0,0,1,6.85,3.81,5.17,5.17,0,0,1,.86,1.37,1.91,1.91,0,0,0,1.21,1.19,4.52,4.52,0,0,1,1.86,1.33c.56.52,1,1.11,1.57,1.67.16.17.41.35.42.52,0,1.15.8,2,1.23,2.92a2.73,2.73,0,0,1-.42,2.44c-.19.37-.55.4-.93.44-2,.23-3.83,1-5.82,1.19-.43,0-.87.15-1.33.17A11.11,11.11,0,0,0,749.15,544.36Z" style="fill:#fc9db2"/><path d="M769.59,536.35c.22-.75-.29-1.2-.68-1.67-.2-.25-.5-.42-.67-.67a1.28,1.28,0,0,1-.14-1.6,2.31,2.31,0,0,0,0-2.57,4,4,0,0,1-.41-1.82,11.74,11.74,0,0,0-1-4.07,2.57,2.57,0,0,0-.6-.73A2.83,2.83,0,0,1,766,519a9.37,9.37,0,0,1,2.62-1.89,5.59,5.59,0,0,0,1.31-.94c.89-1,1.71-.79,2.78.18a3,3,0,0,1,.63,1,4.74,4.74,0,0,0,1.56,2c.15.1.4.23.39.34,0,1,.91,1.38,1.41,2,.93,1.23,1.64,2.6,2.48,3.89.49.75.82,1.61,1.72,2a1,1,0,0,1,.47.92,5.52,5.52,0,0,0,.78,2.82c.45.67.2,1.27-.53,1.68a9.85,9.85,0,0,1-2.86,1.21c-.92.16-1.59.87-2.52,1a.46.46,0,0,0-.31.24c-.29.74-1,.88-1.62,1.09s-1.3.41-1.24,1.33c0,.46-.36.7-.75.88a1.61,1.61,0,0,1-2.47-1.05A2.66,2.66,0,0,1,769.59,536.35Z" style="fill:#fc9db2"/><path d="M671.55,550.16c1.73.66,3-.32,4.28-.63a5.89,5.89,0,0,0,2.74-1,.49.49,0,0,1,.77.52c-.38,1.6.86,2.76,1,4.2.06.38.36.75.35,1.16a5.39,5.39,0,0,0,1.17,3.11,4.31,4.31,0,0,1,.74,3.46,2.15,2.15,0,0,0,0,1.07c.53,1.66.68,3.45,1.64,5,.37.58.17,1.24.42,1.83.13.32.06.75.22,1.05,1,1.81-.28,2.78-1.42,3.68a25.84,25.84,0,0,0-2.53,2c-.59.6-1,.49-1.32-.26-.11-.24-.07-.58-.37-.67-1-.27-1.36-1.31-2.22-1.73a1.41,1.41,0,0,1-.6-1.17,5.35,5.35,0,0,0-1.05-2.31c-.55-.78-1-1.59-1.55-2.39,0,0-.07-.07-.07-.11-.17-1.48-1-2.88-.8-4.35a21,21,0,0,0-.23-5.26c-.09-.77-.19-1.53-.24-2.29a5.18,5.18,0,0,0-.43-2A13.15,13.15,0,0,1,671.55,550.16Z" style="fill:#fc9db2"/><path d="M725.43,559.31c.2-.48,1.89.12,2.18-.27a1.8,1.8,0,0,1,1.65-.76,8.47,8.47,0,0,1,3.3,1.13c.55.31.43,1,.23,1.48a2.8,2.8,0,0,0,.53,2.84,5.19,5.19,0,0,1,1,3.31c0,.41,0,.82,0,1.22a5.57,5.57,0,0,1-1.63,4.26,2.33,2.33,0,0,0-.64,1.18,6,6,0,0,1-1.32,2.78,5,5,0,0,1-4.26,2,4.44,4.44,0,0,1-3.37-1.44c-.72-.86-1.88-1.21-2.81-1.85a4.77,4.77,0,0,1-1.6-2c-.54-1.13-.78-2.37-1.37-3.48a.71.71,0,0,1-.12-.38c.12-.91-1.63-2.43-2.41-3Z" style="fill:#fc9db2"/><path d="M775.64,541.33c1,.61,1.78,1.36,3,1.37a4.66,4.66,0,0,0,2.49-.47c1.3-.79,2.85-1.05,4.07-2a2.34,2.34,0,0,1,1-.35,1.23,1.23,0,0,1,1.58.9,2,2,0,0,0,1.43,1.44c1.65.53,2.4,2,3.18,3.37a15.65,15.65,0,0,1,1.68,3.68,29.56,29.56,0,0,1,.82,3.37,1.52,1.52,0,0,1-.95,1.83c-.23.11-.55.06-.68.36-.42,1-1.42,1-2.25,1.28s-1.59.3-2.37.51c-.58.15-1.14-.3-1.58-.14-.91.34-1.28-.16-1.66-.76a1.8,1.8,0,0,0-.95-.73c-1.63-.55-2.36-1.93-2.9-3.36a26.83,26.83,0,0,0-2.18-4.75A5.21,5.21,0,0,1,779,546a2.13,2.13,0,0,0-1.25-1.34,1.63,1.63,0,0,1-1.13-1.24,2.53,2.53,0,0,0-.7-1A1,1,0,0,1,775.64,541.33Z" style="fill:#fc9db2"/><path d="M748.33,554.77a7.57,7.57,0,0,0,3.66.09,1.2,1.2,0,0,1,1.17.55,11.49,11.49,0,0,1,2.35,4.24c.09.38.19.67-.18,1-1.11.84-1.12,2.13-1.18,3.31-.09,1.76-1.14,3-2,4.32a1.13,1.13,0,0,1-.69.4,5.55,5.55,0,0,1-4.74-.76,23.51,23.51,0,0,0-4.37-2.12,3.59,3.59,0,0,1-1.74-1.42c-.89-1.36-1.8-2.71-2.67-4.08-.4-.62-.15-1.51-.79-2.06-.1-.09.81-1.17,1-1.17,2.16,0,4.06-1.18,6.15-1.45C745.67,555.39,747,555.07,748.33,554.77Z" style="fill:#fc9db2"/><path d="M757.33,551a7.52,7.52,0,0,0,2.56-.7c1.32-.5,2.78-.36,4.13-.71,2.3-.6,4.73-.65,6.92-1.68a2.33,2.33,0,0,1,2.1.09c.48.25.93.54,1.41.81.2.11.4.22.39.49,0,1.88,1.18,3.28,1.92,4.85.21.44.42.8.14,1.24a4.06,4.06,0,0,0-.27,1.72,1.33,1.33,0,0,1-1.08,1.34,10.94,10.94,0,0,0-2.45,1.15,2.85,2.85,0,0,1-2.82.19,8.8,8.8,0,0,0-3.74-.94,6.07,6.07,0,0,1-3.94-1.57,5.52,5.52,0,0,0-3-1.74c-.42,0-.59-.39-.72-.74a6.4,6.4,0,0,0-1.17-2A1.87,1.87,0,0,1,757.33,551Z" style="fill:#fc9db2"/><path d="M712.28,549.5a13,13,0,0,1,.88-5.66c.05-.11.09-.31,0-.38-.51-.57,0-1.11,0-1.63-.12-1.28.82-2.14,1.08-3.26a3.55,3.55,0,0,1,1.65-1.91c.56-.41,1,.06,1.37.5a12.73,12.73,0,0,1,1.6,3,2.31,2.31,0,0,0,1.38,1.55,1.58,1.58,0,0,1,1,1.21,29.61,29.61,0,0,1,1,4.06,22.83,22.83,0,0,1,.12,4,1,1,0,0,1-.28.59,40.46,40.46,0,0,1-3.5,3.67c-.37.3-.7.65-1.32.45a2.66,2.66,0,0,0-1.31,0,2,2,0,0,1-2.46-1.21,18,18,0,0,0-1-2.64C712,551.18,712.3,550.31,712.28,549.5Z" style="fill:#fc9db2"/><path d="M706.2,548c-.26.55-.18.89.23,1.16s.31.51.34.84a8.26,8.26,0,0,0,.71,3.27,5.37,5.37,0,0,1,.21.92c.5,1.63,0,2.11-1.65,2.62a8.23,8.23,0,0,1-3.37.45c-1.18-.15-1.68-.58-1.75-1.75a9.62,9.62,0,0,0-1.15-4,14.72,14.72,0,0,1-1-2.75,7,7,0,0,0-1.3-2.5c-.8-1-.86-1.54-.09-2.53a23.71,23.71,0,0,1,2.56-3.43c.29-.26.38-.71.6-1.05a1.5,1.5,0,0,1,.72-.77c1.06-.41,1.45-.3,1.93.75.61,1.34,1.45,2.58,1.51,4.14a3.83,3.83,0,0,0,.61,1.49A11.19,11.19,0,0,1,706.2,548Z" style="fill:#fc9db2"/><path d="M790.75,533.3a3.1,3.1,0,0,1,.71,0c1.34.41,2.67-.08,4,0a3,3,0,0,0,1.19-.23,5,5,0,0,1,2.13-.36,2.46,2.46,0,0,0,1.28-.34c.62-.29,1-.15,1.14.48.33,1.74,1.32,3.32,1.41,5.07a25.77,25.77,0,0,0,1.07,5,3,3,0,0,1-.56,3,1.64,1.64,0,0,1-1.07.7,1.86,1.86,0,0,0-.74.32,1.61,1.61,0,0,1-2.39-.47c-.63-.83-.82-1.9-1.52-2.7a8.55,8.55,0,0,1-1.6-2.8,7.3,7.3,0,0,0-1.43-2.44,8.83,8.83,0,0,0-2.52-1.73,12,12,0,0,1-2.14-1.41,1.37,1.37,0,0,1-.38-.38c-.58-1.1-.59-1.59.76-1.68Z" style="fill:#fc9db2"/><path d="M701.18,575.48a7.51,7.51,0,0,1-1,4.25,2.35,2.35,0,0,1-3.66.61,18.29,18.29,0,0,1-2.34-3,24.76,24.76,0,0,1-2.08-4.19,4,4,0,0,0-1.13-1.33c-1.37-1.34-1.46-2.06-.28-3.58s2.35-2.13,4.3-1.11a2.41,2.41,0,0,0,.76.28,5.07,5.07,0,0,1,4.11,3.47c.24.63.62,1.18.86,1.82A4.09,4.09,0,0,1,701.18,575.48Z" style="fill:#fc9db2"/><path d="M711.76,568.43a4.61,4.61,0,0,0,.08,1.48,27.91,27.91,0,0,1,.44,5.25,3.69,3.69,0,0,1-.2,1.47c-.48,1.26-.51,2.65-1.13,3.88-.32.62-.61,1.24-1.46,1.2a.2.2,0,0,0-.13,0c-.5.25-1.05.85-1.57.28s-1.43-1.44-1.23-2.58a7.74,7.74,0,0,1,.28-1c.08-.26.19-.58-.09-.74a2.8,2.8,0,0,1-1.08-2.1,25.39,25.39,0,0,1-1-6.24c0-1.29.44-1.69,1.7-1.7.13,0,.32.09.39,0,1-.73,2.19-.44,3.24-.8a2.44,2.44,0,0,1,.53-.14c.92-.13,1.24.14,1.28,1.06Z" style="fill:#fc9db2"/><path d="M784.23,520.35v-2.83c0-.33,0-.65.41-.77a5,5,0,0,1,3.93-.22,1,1,0,0,1,.35.19,9,9,0,0,0,3.58,2.2.88.88,0,0,1,.41.33c.73,1.07.94,2.4,1.74,3.43.22.28,0,.61.08.92.09.6-.49.21-.64.39a9.07,9.07,0,0,1-1.71,1.44,4.63,4.63,0,0,1-2.65.8,2.79,2.79,0,0,0-1.41.33,3.45,3.45,0,0,1-2,.15c-.3,0-.44-.26-.58-.5-.37-.67-.77-1.32-1.14-2a2.71,2.71,0,0,1-.32-1.43c0-.81,0-1.63,0-2.44Z" style="fill:#fc9db2"/><path d="M641.51,533.17c-1,1.51-.67,3-1,4.4a3.37,3.37,0,0,1-3.34,2.74c-1.66-.14-3.31-.47-5-.59s-3.51-.72-5.33-.7c-.79,0-1.56-.4-2.39-.42-.29,0-.41-.32-.6-.51a7.89,7.89,0,0,1-1.17-2.27c-.24-.49.36-1.1.84-.8,1,.6,2,.08,3,.35a11.25,11.25,0,0,0,3,.32,3.07,3.07,0,0,1,.67.08,9.79,9.79,0,0,0,4.27-.14C636.86,535.19,638.94,534,641.51,533.17Z" style="fill:#fc9db2"/><path d="M689.49,559.54l-.52.06c-.91,0-1-.06-1.23-.89a3.88,3.88,0,0,0-.37-1.15c-1-1.47-.66-3.22-1.09-4.81a.59.59,0,0,1,.2-.6,19.81,19.81,0,0,1,2.34-2.42c.45-.29.73-.3,1,.11a15.19,15.19,0,0,0,2.24,2.15c.36.35.73.64,1.3.29s.75.05,1.06.46a8.61,8.61,0,0,1,1.23,4.21,1,1,0,0,1-.74,1.14,19.33,19.33,0,0,0-2.42,1A4.09,4.09,0,0,1,689.49,559.54Z" style="fill:#fc9db2"/><path d="M594.75,448a8,8,0,0,1,1.85,1c0,.05,0,.26-.05.36s-.26.2-.35.09c-.59-.69-.94-.22-1.34.23a1.62,1.62,0,0,1-.46.28c-.29.14-.61.25-.86-.06a.66.66,0,0,1,0-1C593.93,448.57,594.17,448.09,594.75,448Z" style="fill:#fc9db2"/><path d="M588.77,498.11a4.62,4.62,0,0,1-.29.8,1,1,0,0,1-1.29.25c-.34-.34-.05-.66.11-1a3.31,3.31,0,0,1,.5-.62c.15-.16.34-.35.57-.21A.83.83,0,0,1,588.77,498.11Z" style="fill:#fc9db2"/><path d="M586.74,484.9c-.08.05-.15.11-.23.15-.24.12-.45.58-.77.21a.68.68,0,0,1,.09-1c.39-.29.65,0,.81.38,0,.09,0,.18.07.26Z" style="fill:#fc9db2"/><path d="M595.9,478.37a1.62,1.62,0,0,1-1.55.12.41.41,0,0,1-.17-.32c0-.15.13-.21.27-.22A2.6,2.6,0,0,1,595.9,478.37Z" style="fill:#fc9db2"/><path d="M587,485.23c.16.08.32.15.48.25a.47.47,0,0,1,.18.69c-.07.11-.2.24-.3.24-.38,0-.36-.32-.44-.57a.8.8,0,0,1,.11-.64Z" style="fill:#fc9db2"/><path d="M597.72,437.67a.26.26,0,0,1-.29.16c-.13,0-.27-.06-.22-.21s.18-.15.28-.17A.2.2,0,0,1,597.72,437.67Z" style="fill:#fc9db2"/><path d="M780.3,443s.05.06,0,.09,0,.06-.06.09S780.22,443.07,780.3,443Z" style="fill:#fc9db2"/><path d="M782.64,561l-.1,0,.06.07Z" style="fill:#fc9db2"/><path d="M810.06,471.06l-.1,0,.07.07Z" style="fill:#fc9db2"/><path d="M810,471.09l.1,0-.07-.07Z" style="fill:#fc9db2"/><path d="M587,485.2l-.29-.3,0,0,.29.3Z" style="fill:#fc9db2"/><path d="M576.1,499.62s.11,0,.11,0,0,0-.07-.07Z" style="fill:#fc9db2"/><path d="M651.27,430.4a18.68,18.68,0,0,0-.11-4.73,1.74,1.74,0,0,0-1.31-1.64c-1.05-.37-.91-.36-.55-1.39a7,7,0,0,1,1.93-2.37c.69-.74.66-.7.08-1.56a1.31,1.31,0,0,0-1.64-.68,5,5,0,0,1-3.85-.52,5.13,5.13,0,0,0-3-.52,2.07,2.07,0,0,0-1.75,1.29,1.43,1.43,0,0,1-1,1c-.59.15-.7.61-.7,1.16a3.8,3.8,0,0,0,.62,2.05,5.94,5.94,0,0,1,.79,2.15c.06.31.08.66-.26.84s-.45-.19-.67-.3c-1-.48-1.36-1.66-2.41-2.07-.07,0-.11-.24-.1-.36a3,3,0,0,1,.15-.66,6.1,6.1,0,0,0,.29-3.57c-.33-1.36-.17-1.46,1-2.09a2,2,0,0,0,.47-.26.48.48,0,0,0,.11-.61c-.09-.17-.28-.18-.47-.16-1.06.07-1.06.06-1.14-.86-.14-1.47-.09-1.59,1.29-2a9,9,0,0,1,4.09-.71,4.25,4.25,0,0,1,1.56.31.94.94,0,0,0,1.41-.24c.2-.29.57-.45.82-.7a1.3,1.3,0,0,1,1.72-.26c.23.13.48.34.75.18a5.82,5.82,0,0,1,2.64-.44,4.23,4.23,0,0,0,1.71-.79c1.35-.81,1.75-.66,2.18.89a3.94,3.94,0,0,0,2.48,2.83,1.65,1.65,0,0,1,1,1.05A1.94,1.94,0,0,0,661,416a4.64,4.64,0,0,1,1.64.6c.45.27.67.54.27,1.08a12.63,12.63,0,0,1-.94,1.14c-.82.89-1.75,1.72-1.71,3.11,0,.49-.38.62-.76.46a1.22,1.22,0,0,0-1.8.57c-.3.53-1.09.54-1.61.91a2.67,2.67,0,0,0-1.33,1.94c-.13,1.4-1.37,2.17-1.82,3.37A3.2,3.2,0,0,0,651.27,430.4Z" style="fill:#fc9db2"/><path d="M662.19,425.82a5.54,5.54,0,0,1,2.2.16.71.71,0,0,1,.62.44,11.47,11.47,0,0,1,1.2,2.24,1.09,1.09,0,0,0,.76.88.94.94,0,0,1,.61.67c.14.37,0,.62-.39.65a2.34,2.34,0,0,1-2.47-1.82,2.87,2.87,0,0,0-1.68-2.4A1.79,1.79,0,0,1,662.19,425.82Z" style="fill:#fc9db2"/><path d="M643.25,430.15c-1.49,0-2.35-.82-2.16-2.11a.62.62,0,0,1,.34-.54c.28-.12.38.11.54.26.94.87,1.47.86,2.54,0,.2-.17.36-.46.66-.31s.22.47.2.73A2.18,2.18,0,0,1,643.25,430.15Z" style="fill:#fc9db2"/><path d="M722,410.11c-.27-.53-.37-.78-.51-1a2.36,2.36,0,0,0-3.08-.91c-.42.17-.82.37-1.24.53-1,.41-1.11.36-1.32-.68a5,5,0,0,1,1.89-4.64.71.71,0,0,1,1,.08,28.68,28.68,0,0,0,3.77,2.6,1.51,1.51,0,0,1,.52,2.38A4.77,4.77,0,0,0,722,410.11Z" style="fill:#fc9db2"/><path d="M729.12,426.47a1.17,1.17,0,0,1-1.52-.07c-1-.61-1.9-1.35-3.23-.86-.41.15-.93-.29-1.32-.59-1.56-1.15-3.07-2.36-3.69-4.32-.3-.92-.28-1,.4-1.26s1.07-.16,1.37.61a13.8,13.8,0,0,0,1.43,2.44,2.07,2.07,0,0,0,1.88,1.1,2,2,0,0,1,1.82,1c.21.32.41.62.82.63C728,425.11,728.46,425.83,729.12,426.47Z" style="fill:#fc9db2"/><path d="M734.45,426.24c-.76.68,0,1.26.17,1.9a2.94,2.94,0,0,1,.11.66c0,.22,0,.47-.19.61a.48.48,0,0,1-.61-.14,6,6,0,0,0-3.51-1.79c-.24,0-.34-.3-.4-.51s.28-.26.39-.42a.77.77,0,0,1,.72-.29,1.8,1.8,0,0,0,1.34-.51,1.4,1.4,0,0,1,1.64-.07A.5.5,0,0,1,734.45,426.24Z" style="fill:#fc9db2"/><path d="M721.13,415.55a7.46,7.46,0,0,1,.92.55c.61.49.59.83,0,1.38-.29.26-.56.73-1,.51s0-.7,0-1.07A2.21,2.21,0,0,1,721.13,415.55Z" style="fill:#fc9db2"/><path d="M822.52,614.82l.1,0-.07-.06Z"/><path d="M673.89,417.47a5,5,0,0,1,2.26-1.57,1.56,1.56,0,0,1,2.24.58,7.13,7.13,0,0,1,1.72,3,4.7,4.7,0,0,0,.6,1.21,4.26,4.26,0,0,1,.28,2.12c0,.57.13,1,.81,1,.38,0,.74.11.78.58s.2.8.69.85a1.66,1.66,0,0,0,1.37-.45,4.65,4.65,0,0,0,.48-.66,1.36,1.36,0,0,1,2.06-.34,3.56,3.56,0,0,1,1.05,1.23c.39.76.6,1.6,1.07,2.33a1,1,0,0,1,0,.79c-.23.76.37,1.37.41,2.09,0,.24.28.34.52.36,1,.09,1.37,1.09,2.08,1.6.9.65.59,1.52.66,2.33a1.31,1.31,0,0,0,.23.85,7.39,7.39,0,0,0,2.36-1.39,15.47,15.47,0,0,0,2.53-3.17c.41-.74,1.3-1,1.68-1.72.09-.19.41-.15.64-.11a5.55,5.55,0,0,0,1.06.16,1.44,1.44,0,0,1,1.48,1c.23.49.49,1,.75,1.43a2.18,2.18,0,0,1,0,2.32,5.65,5.65,0,0,0-.71,2.86,30.43,30.43,0,0,1-.88,5.19,4.55,4.55,0,0,0-.12,1.47,8.14,8.14,0,0,1-.28,3.7,1.53,1.53,0,0,0-.08.67c.23,2-.71,3.47-1.87,4.9-.45.56-.9,1.13-1.37,1.68a2.23,2.23,0,0,1-.94.75c-2.92,1-5.12,3.2-7.58,4.94-.78.56-1.44,1.31-2.29,1.84a3.2,3.2,0,0,0-1.17,1.3,3.42,3.42,0,0,1-1.11,1.13,36.77,36.77,0,0,0-3.14,3c-1.29,1.38-2.7,2.65-3.93,4.1a3.32,3.32,0,0,1-2.22,1.57c-.39,0-.75.48-1.1.76a14.13,14.13,0,0,1-4.77,2.76,25.65,25.65,0,0,0-3.89,1.86,11.4,11.4,0,0,1-3.65,1.39,1.21,1.21,0,0,0-.63.21,3.42,3.42,0,0,1-2.44.66c-1.34-.05-2.65.59-4,.14a5.46,5.46,0,0,1-1.42-.45.82.82,0,0,0-.62-.2c-1.73.32-3.16-.43-4.68-1.1s-2.73-1.72-4.21-2.37a4.37,4.37,0,0,0-1.57-.39,1.1,1.1,0,0,1-1.05-.72,2.88,2.88,0,0,0-.7-1c-.66-.67-.82-.75-1.62-.26-.47.29-1.07.22-1.45.69-.22.25-.6.13-.91.07a9.35,9.35,0,0,0-1.58-.39.83.83,0,0,1-.63-.47c-.36-.57-.74-1.13-1.1-1.71-.09-.14-.2-.41-.14-.49.68-.86-.2-1.13-.62-1.38a3.15,3.15,0,0,1-1.74-3.12c0-.65-.57-1.31.06-1.93a7.09,7.09,0,0,0-1-1.36c-.61-.5-1.21-.93-1.25-1.82,0-.14-.19-.3-.32-.42-.88-.78-1.61-1.7-2.44-2.53a39.14,39.14,0,0,1-3-3.3,3.28,3.28,0,0,1-1-2.12.56.56,0,0,0-.17-.36c-1.31-1.17-1.65-3-2.82-4.28a7.32,7.32,0,0,1-1.2-2.71,37.59,37.59,0,0,0-1.57-4.74,7,7,0,0,1-.45-1.7,31.12,31.12,0,0,0-.84-3.83,2.31,2.31,0,0,1-.06-1.47,2.94,2.94,0,0,0,0-1.35,8.09,8.09,0,0,1,0-2.69,23.87,23.87,0,0,0,0-5.41c0-1.27.26-2.5.31-3.75a1,1,0,0,1,.14-.52c1.14-1.4,1.37-3.39,2.73-4.58a10.86,10.86,0,0,0,2.24-3.36,5.26,5.26,0,0,1,1.31-1.42,28.11,28.11,0,0,0,3.56-3.67c1.07-1.43,2.19-3.15,4.34-3.38a1.07,1.07,0,0,0,.89-.92c.15-.51.49-.63,1-.78a22.4,22.4,0,0,0,3.17-1.19,31.14,31.14,0,0,0,4.32-1.9,5.51,5.51,0,0,1,2.86-.73,1.72,1.72,0,0,0,.93-.16c1.47-.95,3.21-.81,4.81-1.22a1,1,0,0,1,.91.07c1.2.86,2.43.45,3.59-.05a1.93,1.93,0,0,1,1.37-.17,4.45,4.45,0,0,0,3.19-.16,1.52,1.52,0,0,1,1.06-.15c1.06.31,2.16-.06,3.22.24a2.38,2.38,0,0,0,1.45-.27,2.89,2.89,0,0,1,1.72-.12,14.72,14.72,0,0,0,4.58.41,19.63,19.63,0,0,0,3.25-.12.71.71,0,0,1,.74.24c.46.75,1.2.7,1.92.77,1.06.1,1.86.92,2.91,1.06.36.05.69.23,1,.29,2,.35,3.08,1.72,4.08,3.4a13.79,13.79,0,0,0,2.61,3.82.81.81,0,0,1,.31.43c.26,1.48,1.3,2.68,1.49,4.17a2.72,2.72,0,0,0,.62,1.19c.15.23.31.57,0,.72-1.09.56-1.65,1.63-2.46,2.46a.74.74,0,0,1-.95.21,4.49,4.49,0,0,1-2.86-2.88c-.41-1.44-1.54-2.41-2.25-3.65-.26-.45-.59-.19-.88.09A4.6,4.6,0,0,1,674,411a.58.58,0,0,0-.75.37,25,25,0,0,0-.94,2.93,2.19,2.19,0,0,0,.82,2.3A6.74,6.74,0,0,1,673.89,417.47ZM651.27,430.4a3.2,3.2,0,0,1,1.7-1.27c.45-1.2,1.69-2,1.82-3.37a2.67,2.67,0,0,1,1.33-1.94c.52-.37,1.31-.38,1.61-.91a1.22,1.22,0,0,1,1.8-.57c.38.16.78,0,.76-.46,0-1.39.89-2.22,1.71-3.11a12.63,12.63,0,0,0,.94-1.14c.4-.54.18-.81-.27-1.08A4.64,4.64,0,0,0,661,416a1.94,1.94,0,0,1-1.62-1.27,1.65,1.65,0,0,0-1-1.05A3.94,3.94,0,0,1,656,410.8c-.43-1.55-.83-1.7-2.18-.89a4.23,4.23,0,0,1-1.71.79,5.82,5.82,0,0,0-2.64.44c-.27.16-.52-.05-.75-.18a1.3,1.3,0,0,0-1.72.26c-.25.25-.62.41-.82.7a.94.94,0,0,1-1.41.24,4.25,4.25,0,0,0-1.56-.31,9,9,0,0,0-4.09.71c-1.38.41-1.43.53-1.29,2,.08.92.08.93,1.14.86.19,0,.38,0,.47.16a.48.48,0,0,1-.11.61,2,2,0,0,1-.47.26c-1.2.63-1.36.73-1,2.09a6.1,6.1,0,0,1-.29,3.57,3,3,0,0,0-.15.66c0,.12,0,.33.1.36,1,.41,1.43,1.59,2.41,2.07.22.11.35.48.67.3s.32-.53.26-.84a5.94,5.94,0,0,0-.79-2.15,3.8,3.8,0,0,1-.62-2.05c0-.55.11-1,.7-1.16a1.43,1.43,0,0,0,1-1,2.07,2.07,0,0,1,1.75-1.29,5.13,5.13,0,0,1,3,.52,5,5,0,0,0,3.85.52,1.31,1.31,0,0,1,1.64.68c.58.86.61.82-.08,1.56a7,7,0,0,0-1.93,2.37c-.36,1-.5,1,.55,1.39a1.74,1.74,0,0,1,1.31,1.64A18.68,18.68,0,0,1,651.27,430.4Zm10.92-4.58a1.79,1.79,0,0,0,.85.82,2.87,2.87,0,0,1,1.68,2.4,2.34,2.34,0,0,0,2.47,1.82c.42,0,.53-.28.39-.65a.94.94,0,0,0-.61-.67,1.09,1.09,0,0,1-.76-.88,11.47,11.47,0,0,0-1.2-2.24.71.71,0,0,0-.62-.44A5.54,5.54,0,0,0,662.19,425.82Zm-18.94,4.33a2.18,2.18,0,0,0,2.12-2c0-.26.08-.58-.2-.73s-.46.14-.66.31c-1.07.88-1.6.89-2.54,0-.16-.15-.26-.38-.54-.26a.62.62,0,0,0-.34.54C640.9,429.33,641.76,430.17,643.25,430.15Z"/><path d="M723.87,393.27a9.37,9.37,0,0,0,2.24-.3c.5-.07,1-.29,1.47,0a1.91,1.91,0,0,0,1.92-.11,2.67,2.67,0,0,1,1.82-.28,1.93,1.93,0,0,0,1.33-.14c1.06-.51,2.23-.61,3.29-1.17a2.75,2.75,0,0,1,3.49.47,6.64,6.64,0,0,0,2.8,1.52,5.92,5.92,0,0,1,3.59,2.48c.46.8,1.36,1.3,1.69,2.26.09.28.51.33.78.5a3.23,3.23,0,0,1,1.58,1.93,6,6,0,0,0,1.78,3.28,1.17,1.17,0,0,1,.29.6,15.64,15.64,0,0,0,2.11,4.49,20.25,20.25,0,0,0,3.82,4.83,3.66,3.66,0,0,0,1.08.8c1.41.52,2.53,1.57,3.91,2.14a.85.85,0,0,1,.33.24c1.17,1.41,2.55,2.65,3.6,4.18.31.44.56.93.9,1.35.57.68.47,1.53.68,2.31s1.15,1,1.32,1.84a6.15,6.15,0,0,1,.17,1.34,6,6,0,0,0,.52,2.51,5.38,5.38,0,0,1,.62,3.51c0,.08,0,.23,0,.26.94.65.56,1.58.58,2.45a3,3,0,0,0,.43,1.55,4.28,4.28,0,0,1,.55,2.6c0,.58-.06,1.18.55,1.57a.57.57,0,0,1,.25.46c-.2,1.16.62,2,.86,3.06a10.59,10.59,0,0,1,.55,3.06,1.24,1.24,0,0,0,.26.89c.77.9.62,2.15,1.19,3.12-.44,1,.68,2-.24,3-.05,0,0,.29.09.36,1,.85.37,2.2,1,3.17.07.11,0,.36-.09.51a2.58,2.58,0,0,0-.15,1.71,3.58,3.58,0,0,1-1.1,3.2,23.89,23.89,0,0,1-2.12,1.91,5.82,5.82,0,0,1-4.1,1.07c-.66,0-1.34-.13-2-.18a2.2,2.2,0,0,1-2-.93c-.38-.58-1-.65-1.67-.11a1.22,1.22,0,0,1-1.78-.08l-.11-.08a9.5,9.5,0,0,1-3.62-3.39,1.61,1.61,0,0,0-.53-.6c-2-1.05-3.17-2.89-4.73-4.38a2.25,2.25,0,0,1-.54-.76,13.94,13.94,0,0,0-1.85-3c-.11-.14-.3-.28-.31-.43-.1-1.18-1-2-1.28-3.11a5.57,5.57,0,0,0-1.05-2,2.56,2.56,0,0,1-.55-.92,4.19,4.19,0,0,0-1.31-1.86,3.5,3.5,0,0,1-1.15-1.48c-.16-.56-.87-.53-1.19-1-1.16-1.8-2.93-3-4.42-4.52a2.15,2.15,0,0,0-1.19-.62c-1.19-.19-2.28-.79-3.53-.77a4.22,4.22,0,0,1-2.11-.86c-1.4-.83-3-1.28-4.35-2.19a1.32,1.32,0,0,0-.52-.16,13.26,13.26,0,0,1-4.84-1.91,5.22,5.22,0,0,0-2.2-.64,3.58,3.58,0,0,1-2.45-1.27,15.73,15.73,0,0,0-1.16-1.15,14.39,14.39,0,0,1-2.39-3.06,22.5,22.5,0,0,1-1.83-4.3c-.51-1.5-1.26-2.9-1.74-4.4-.34-1.07-.94-2.16-.55-3.39a1.49,1.49,0,0,0,0-.81c-.43-1.28-.51-2.66-1-3.93a4,4,0,0,1-.3-2.76,2.75,2.75,0,0,0,0-.95,2.6,2.6,0,0,1,.62-2.26.82.82,0,0,0,.18-.36,5,5,0,0,1,2.68-3.07,26.76,26.76,0,0,0,5-3.84,7.49,7.49,0,0,1,3.88-2.34l.66-.11a3.77,3.77,0,0,1,.6-.31,1.61,1.61,0,0,1,.24-.09,1.27,1.27,0,0,1,.4-.06ZM722,410.11a4.77,4.77,0,0,1,1-1.64,1.51,1.51,0,0,0-.52-2.38,28.68,28.68,0,0,1-3.77-2.6.71.71,0,0,0-1-.08,5,5,0,0,0-1.89,4.64c.21,1,.29,1.09,1.32.68.42-.16.82-.36,1.24-.53a2.36,2.36,0,0,1,3.08.91C721.62,409.33,721.72,409.58,722,410.11Zm7.13,16.36c-.66-.64-1.09-1.36-2-1.36-.41,0-.61-.31-.82-.63a2,2,0,0,0-1.82-1,2.07,2.07,0,0,1-1.88-1.1,13.8,13.8,0,0,1-1.43-2.44c-.3-.77-.73-.89-1.37-.61s-.7.34-.4,1.26c.62,2,2.13,3.17,3.69,4.32.39.3.91.74,1.32.59,1.33-.49,2.24.25,3.23.86A1.17,1.17,0,0,0,729.12,426.47Zm5.33-.23a.5.5,0,0,0-.34-.56,1.4,1.4,0,0,0-1.64.07,1.8,1.8,0,0,1-1.34.51.77.77,0,0,0-.72.29c-.11.16-.5.07-.39.42s.16.47.4.51a6,6,0,0,1,3.51,1.79.48.48,0,0,0,.61.14c.21-.14.2-.39.19-.61a2.94,2.94,0,0,0-.11-.66C734.44,427.5,733.69,426.92,734.45,426.24Zm-13.32-10.69a2.21,2.21,0,0,0-.15,1.37c0,.37-.5.82,0,1.07s.72-.25,1-.51c.62-.55.64-.89,0-1.38A7.46,7.46,0,0,0,721.13,415.55Z"/><path d="M729.7,488.44c2.27,1.93,1.66,1.66,3.83.05a4,4,0,0,0,1.41-2,2,2,0,0,1,1-1.18c1.08-.62,1.62-1.09,1-2.53-.39-.93,0-1.78.06-2.66,0-.36.34-.4.61-.37a1.37,1.37,0,0,0,1.19-.51,3.15,3.15,0,0,1,1.17-.66,1.07,1.07,0,0,1,1.34.24,1.52,1.52,0,0,0,.64.5c.78.2,1.41.41.82,1.4,0,.07.06.25.13.36,1,1.55.41,3.15.09,4.72a1.73,1.73,0,0,1-1.09,1.3,2.11,2.11,0,0,0-1.26,1.48,14,14,0,0,0-.84,2.38c-.07.52-.69.7-1.11.92-.77.4-1.56.72-1.85,1.66a.48.48,0,0,1-.79.2c-.9-.68-2.1-.52-3-1.18a.59.59,0,0,0-1,.23c-.67,1.27-1.37,1.22-3,.78-.7-.18-1.26-.94-2.1-.35-.08.06-.33-.09-.48-.18a17,17,0,0,0-3.51-1.71,7.79,7.79,0,0,1-2.76-1.92c-.57-.57-1.09-1.2-1.63-1.81-.12-.13-.27-.31-.26-.46.08-1-.62-1.57-1.18-2.19a7,7,0,0,1-1.44-2.23,3.43,3.43,0,0,0-.77-1.26.9.9,0,0,1-.32-.57c.12-1.59-.59-3-.91-4.47a11.23,11.23,0,0,1-.09-2.84,12.22,12.22,0,0,0-.36-3.49,6.36,6.36,0,0,1,.24-3.71c.62-1.7.94-3.57,2.31-4.93a4.63,4.63,0,0,0,.9-1.51,30.1,30.1,0,0,1,1.88-4c.3-.5.15-1.24.81-1.61.22-.12,0-.41,0-.63a21.79,21.79,0,0,1,.13-5.41,5.12,5.12,0,0,1,2.2-3.56.94.94,0,0,0,.23-.16c1.15-1.57,3-1.84,4.65-2.44,1.23-.43,2.45-.9,3.66-1.39a1.75,1.75,0,0,1,1.19-.07c.92.31,2,.38,2.55,1.37a1.73,1.73,0,0,0,.75.57,5,5,0,0,1,2.31,2.41c.77,1.49,1.81,2.8,2.71,4.2a4.4,4.4,0,0,1,.54.94,2.82,2.82,0,0,0,1.33,1.64c.19.1.44.24.51.43.56,1.48,2.09,2,3,3.18a2.9,2.9,0,0,0,.92.78,6.14,6.14,0,0,1,2.4,2.82c.58,1.15.61,2.43,1.18,3.56.68,1.31,1.13,2.78,2.64,3.46a.65.65,0,0,1,.25.31,3.67,3.67,0,0,0,2.59,2.36c.39.07.55.49.59.85a.88.88,0,0,0,.85.88,4.08,4.08,0,0,1,2.17,1.31,2.5,2.5,0,0,1-.21,3.87,8,8,0,0,1-.93.57c-.19.11-.41.18-.6.29-.7.39-.67,1.5-1.18,1.71a2.92,2.92,0,0,0-1.5,1.31c-.83,1.33-1.49,2.8-2.94,3.65-1,.6-1.28.5-2.31-.07-1.76-1-2.62-2.66-3.78-4.12a3.77,3.77,0,0,1-.7-1.61,5,5,0,0,0-1-2.22c-.42-.51-.38-1.19-.63-1.77-.43-1-1.33-1.84-1.17-3.09,0-.28-.31-.4-.55-.53-.71-.39-1.51-.11-2.24-.36-.18-.06-.3.15-.34.34a10.6,10.6,0,0,1-1,3.35.39.39,0,0,0,.05.5,1.72,1.72,0,0,1,0,2.05c-.7,1.15-.74,2.51-1.36,3.65a21.29,21.29,0,0,1-1.82,3.43c-.5.61-.57,1.48-1,2.18-.65,1-1.46,1.84-2.16,2.78C731,488.21,730.28,488.05,729.7,488.44Z"/><path d="M688.76,351.74c-.4-.37-.77-.72-.66-1.29s-.7-.8-.66-1.49-.72-.79-1.26-1c-.92-.4-1.26-1.37-1.85-2.08a10,10,0,0,0-.85-1.18c-.41-.37-.47-.82,0-1.12a8.41,8.41,0,0,0,1.71-1.5,1.77,1.77,0,0,1,2.41.18c.36.37.61.93,1.3.62a.39.39,0,0,1,.38.08c.46.77,1.48,1,1.79,1.92a3.93,3.93,0,0,0,1.82,2.25,2.43,2.43,0,0,1,1.39,1.74.88.88,0,0,0,.5.61,6.59,6.59,0,0,0,4.06,1.2c1.87-.2,3.69.15,5.53.09a6.56,6.56,0,0,1,1.86.29,4.3,4.3,0,0,1,2.39,1.65,11.32,11.32,0,0,1,1.82,3.86c.25.92-.37,1.34-.78,1.88-.27.35-.73.09-1-.09a4,4,0,0,0-2.16-.68,26.26,26.26,0,0,0-5.27.39,11.13,11.13,0,0,0,1.94,3.93,3.74,3.74,0,0,1,.69,2.28,20,20,0,0,0,.07,2.44c.1.75-.16,1.07-.94,1.41,0,0-.1,0-.13,0-1.32,1.2-2.37.19-3.43-.45-1.39-.83-2.09-2.33-3.15-3.48a.84.84,0,0,1-.19-.36c-.31-1.75-1.51-3-2.39-4.47a1.29,1.29,0,0,0-1.58-.73,5,5,0,0,0-1.19.25,16.08,16.08,0,0,1-4.85.92,4.62,4.62,0,0,0-1.17.33,45.09,45.09,0,0,1-6.35,2.21c-2.05.4-3.84,1.57-5.93,1.72-1.21.83-2.77.78-4,1.61a9.78,9.78,0,0,1-2.69,1.2c-2.14.64-4,1.89-6,2.67-1.68.64-3.16,1.73-5,2a4.8,4.8,0,0,0-2.64,1.53c-1.08,1.19-2.63,1.46-4,2.1a5.47,5.47,0,0,1-4.82-.17,2.68,2.68,0,0,1-1.86-2.34,6.36,6.36,0,0,1,.49-3.81c.18-.32.36-.65.75-.75,2.06-.53,3.78-1.91,5.87-2.37.85-.92,2.11-1.15,3.13-1.8a21.29,21.29,0,0,1,4.09-1.76c.47-.18.89-.43,1.34-.61,1.36-.57,2.59-1.41,4-1.92a52.48,52.48,0,0,0,5.25-2.07,13.83,13.83,0,0,1,3.34-1.06c1.72-.35,3.34-1,5.08-1.33a31.27,31.27,0,0,0,4.29-1.24,14.53,14.53,0,0,1,2.47-.68,6.57,6.57,0,0,0,1.69-.47,12.37,12.37,0,0,1,4.14-.79A1.65,1.65,0,0,0,688.76,351.74Z"/><path d="M639.54,341a4.77,4.77,0,0,0-1.64-3.68,10.49,10.49,0,0,1-1.45-2.09,1,1,0,0,1-.09-.91c.12-.34.19-.7.32-1,.82-2.1,1.09-2.23,3.22-1.23a9.64,9.64,0,0,1,4.61,3.85,6.12,6.12,0,0,0,1,1.25c.79.8,1.28.85,2.23.19.35-.24.63-.5,1.09-.36a2.56,2.56,0,0,0,2.17-.51c1.53-1,3.35-1,5-1.59.91.65,1.32-.14,1.86-.63a2.24,2.24,0,0,1,1.18-.63,11.17,11.17,0,0,0,2.19-.7,37.55,37.55,0,0,1,6.32-1.23c.43-.08.9.07,1.27-.3a.6.6,0,0,1,.64-.15c.86.41,1.68-.06,2.52-.09,1.92-.07,3.84-.07,5.77-.09a1.12,1.12,0,0,1,.62.2,1.36,1.36,0,0,0,1.5.31.57.57,0,0,1,.73.21c.66,1,1.74,1.56,2.51,2.45a1.76,1.76,0,0,1,.46,1.86,1.61,1.61,0,0,1-1.48,1,3.23,3.23,0,0,0-1.55.44.49.49,0,0,1-.38.09c-1.24-.29-2.52.33-3.75-.16a.59.59,0,0,0-.26,0c-1.84.27-3.77-.07-5.49.87a2.2,2.2,0,0,1-1.33.18,9,9,0,0,0-5.62,1.37,11.83,11.83,0,0,1-1.84.56,45.39,45.39,0,0,1-4.6,1.59c-.84.23-1.57,1-2.45,1.32-.25.09-.5.33-.73.31-1.32-.1-2.08,1-3.19,1.37a.58.58,0,0,0-.19,1c.64.55.8,1.54,1.74,1.79.46.13.49.61.65,1,.45,1,.54,2.25,1.54,3s1.11,1.82,1,3a6.16,6.16,0,0,1-1.85,4.48c-.35.31-.55.55-1,.21-.87-.65-1.9-1.09-2.73-1.76a6.15,6.15,0,0,1-2.59-4.13,2.74,2.74,0,0,0-.48-1.25c-.77-1.11-1.5-2.26-2.3-3.35-.53-.72-.86-.8-1.62-.4a6.32,6.32,0,0,0-1.72,1,1,1,0,0,1-.44.31c-2,.71-3.38,2.36-5.1,3.5a2.78,2.78,0,0,1-2.91-.19c-.9-.7-2.05-1.26-2-2.7,0-.15-.14-.32-.24-.46a2.4,2.4,0,0,1,.16-3.45c1.07-.85,2-2,3.54-2.1a.74.74,0,0,0,.46-.26C636.14,342.67,638,342,639.54,341Z"/><path d="M608.42,401.46a9.13,9.13,0,0,1,1.12-4.28,19.06,19.06,0,0,1,3.72-5.28,4.16,4.16,0,0,1,.73-.6c.76-.5.85-.67.62-1.51-.06-.22-.17-.42-.24-.63-.6-1.74-.4-2.49.94-3.72.18-.16.41-.32.59-.15.55.5,1,.21,1.44-.13a.84.84,0,0,1,1,0,14.27,14.27,0,0,1,1.59.74.56.56,0,0,0,.92-.16.55.55,0,0,0-.21-.82c-1.23-.59-1.33-2-2-2.93a1.93,1.93,0,0,1,0-1.71.55.55,0,0,1,.63-.41c1.2.18,2.5.2,2.94,1.7a.34.34,0,0,0,.06.12c1.48,2.25,1.92,2.18,3.78.68.73-.59,1.63-.74,2.33-1.31.24-.2.52,0,.78.07.74.21,1.48.39,2.22.62a2.71,2.71,0,0,0,2.23-.12c.72-.4,1.38.19,2.09.14.44,0,.89.19,1.33.2,1.84,0,3.1,1.09,4.27,2.33a1.32,1.32,0,0,1,.19,1.63,1.24,1.24,0,0,1-1.42.54c-.58-.09-1.16-.13-1.75-.18a1.88,1.88,0,0,0-1.83.56c-.31.37-1,.46-1.43.71-1.6.83-3.2,1.66-4.79,2.51a16.92,16.92,0,0,1-2.09.55c-.34.13-.69.19-.89.54a5.48,5.48,0,0,1-3,2c-1.67.69-3.39,1.28-4.62,2.71a5.6,5.6,0,0,1-1.73,1,7.63,7.63,0,0,0-2,1.62,5.12,5.12,0,0,1-1.73,1.67c-.37.16-.39.6-.54.92-.43.89-.76,1.85-1.85,2.2-.32.1-.39.49-.62.69s-.72.63-1.13,0a.54.54,0,0,0-.32-.21c-1.15-.26-1.15-.25-1.27-1.27C608.46,402.18,608.44,401.82,608.42,401.46Z"/><path d="M715.87,517.56a13.13,13.13,0,0,0,.07,2.36c.13.69-.45,1.16-1.07,1.4a2.14,2.14,0,0,0-1.11.68c-.43.56-.81.61-1.19,0-.92-1.38-2.37-2.36-2.93-4a1.69,1.69,0,0,0-.45-.66,5.49,5.49,0,0,1-1.46-2.56,24.11,24.11,0,0,1-1.16-2.7,12.37,12.37,0,0,0-.84-3.53,1.85,1.85,0,0,1,0-.94c.13-1.61.89-2,2.37-1.26a5.9,5.9,0,0,1,1.55,1.3c.41.45.63,1.08,1.45.79.11,0,.35.24.52.39a11.27,11.27,0,0,1,2.75,3.81c.4.8.69,1.67,1.16,2.44S715.66,516.81,715.87,517.56Z"/><path d="M750.68,500.5a5.51,5.51,0,0,1,4.69,3.36,2.19,2.19,0,0,1-.11,1.72,1.73,1.73,0,0,0-.35,1c.19,1.41-.79,2-1.76,2.62-.19.12-.47.14-.6.3-.67.84-1.57.52-2.36.41a2.22,2.22,0,0,1-1.83-1.43c-.05-.13-.1-.3-.2-.35-1.07-.57-1.17-1.58-1.32-2.64-.22-1.58-.27-1.57.53-3,.15-.28.27-.58.41-.86s.25-.51.53-.58C749.1,500.87,749.89,500.69,750.68,500.5Z"/><path d="M762.24,490.12a1.76,1.76,0,0,1,1.9,1.09c.38.72,1.22,1,1.72,1.61a1.52,1.52,0,0,1,.47,1.19,2.2,2.2,0,0,0,.31,1.57,2.32,2.32,0,0,1,.23,2.19,2.67,2.67,0,0,0-.06,1.7c.2.66.25,1.44-.45,1.82a2.16,2.16,0,0,1-2.16.22,4.71,4.71,0,0,1-2.88-3.62,3.77,3.77,0,0,0-1.12-2.39,1.19,1.19,0,0,1-.42-1,3.74,3.74,0,0,0-.22-1.19c-.57-1.93.32-3.16,2.33-3.26A1.94,1.94,0,0,1,762.24,490.12Z"/><path d="M737.86,509.27a9,9,0,0,0,.11,2.11.84.84,0,0,1-.63,1,7.05,7.05,0,0,0-1.16.68,6.41,6.41,0,0,0-2.35,1.85.81.81,0,0,1-1.31.07c-1-1.11-2.5-1.77-3-3.34a4.09,4.09,0,0,0-.86-1.2,1.32,1.32,0,0,1,.19-2.18c.15-.12.3-.21.35-.39.22-.73.66-.69,1.26-.44s1.28.51,1.71-.37c.15-.3.52-.32.84-.35.54-.06,1.08-.12,1.61-.21a.91.91,0,0,1,.76.19,14.56,14.56,0,0,0,2.23,1.51C737.87,508.39,738.07,508.6,737.86,509.27Z"/><path d="M577.47,484.17a2.21,2.21,0,0,1-1.87-1.32c-.13-.49-.37-.92-.53-1.38-.41-1.18,0-1.93,1.34-2.31a1.64,1.64,0,0,1,2.1,1.32A10,10,0,0,0,579,482,1.56,1.56,0,0,1,577.47,484.17Z"/><path d="M781.6,591.45c.2-.21.37-.11.54-.11.84,0,1.29-.37.91-1-.77-1.22.42-2.28,0-3.42-.06-.17.17-.3.32-.39A1.22,1.22,0,0,0,784,586a5.05,5.05,0,0,1,3.34-2.43,1.27,1.27,0,0,0,.85-.79c.08-.2.11-.43.18-.64.16-.47.35-1,.85-1.12s.77.42,1,.82a7.08,7.08,0,0,0,1.45,1.59c.61.59,1.34,1.18.63,2.18-.16.24,0,.53,0,.79a2.92,2.92,0,0,0,1.78,1.92,2.59,2.59,0,0,0,2.42-.14c.46-.29,1-.92,1.65-.72s.65.93,1,1.37a4,4,0,0,0,2.62,1.76c.64.08,1.23.35,1.22,1.19,0,.49.42.77.69,1.13a4.2,4.2,0,0,1,1.21,2.37c0,1-.18,1.27-1.22,1.18a2.12,2.12,0,0,0-1.72.88c-.31.31-.55.48-.89.1-.1-.1-.2-.22-.33-.11-1.26,1-2.76.84-4.2.91a1.69,1.69,0,0,0-1.72,1.25c-.59,1.93-2.06,2.76-3.87,3.19a20.13,20.13,0,0,0-3,.72c-1.4.56-2.44-.14-3.48-.8a7.65,7.65,0,0,1-1.25-1.23.35.35,0,0,1-.07-.48c.76-1.16,0-2.29-.17-3.39-.28-1.52-.86-3-.62-4.57C782.46,592.21,781.67,592,781.6,591.45Z"/><path d="M755.14,584.08c-.83,1.34.31,2.48.91,3.75a3.78,3.78,0,0,1,.51,2.84,2.62,2.62,0,0,0,.44,2.08.86.86,0,0,1-.22,1.29c-1.51,1.27-2.61,1.59-4.23.45-.87-.62-1.5-1.57-2.57-2a.53.53,0,0,1-.3-.42c.12-1-.71-1.68-1.08-2.51a10.67,10.67,0,0,0-1.36-2.13,5,5,0,0,1-1-4.31c.15-.62.73-1,1-1.55a6.16,6.16,0,0,0,.69-1.44,2.39,2.39,0,0,1,.63-1A.93.93,0,0,1,750,579a16.84,16.84,0,0,1,2.63,2.12,2.86,2.86,0,0,0,1.19.88C755.05,582.44,755.12,582.57,755.14,584.08Z"/><path d="M773.18,574.67a4.21,4.21,0,0,0,.76,2.24,10,10,0,0,1,1.17,3.14,1.77,1.77,0,0,1-.67,1.91,1.11,1.11,0,0,0-.5.61,1.13,1.13,0,0,1-1.24.85c-1.14,0-2.38.17-3.33-.75a2,2,0,0,0-1.18-.61,4.3,4.3,0,0,1-2.91-1.7,26.4,26.4,0,0,1-1.89-3.12.71.71,0,0,1,0-.65c.62-.75.65-1.9,1.62-2.4.35-.19.43-.55.62-.85a1.67,1.67,0,0,1,2.82-.23c.18.2.34.43.51.63.83,1,1.37,1.07,2.42.36a2,2,0,0,1,.82-.41C772.94,573.59,773.24,573.89,773.18,574.67Z"/><path d="M719.31,593.55c-.43-.82,0-1.32.62-1.72a9.71,9.71,0,0,0,1.8-2c.57-.62,1-.74,1.59-.22a23.29,23.29,0,0,1,3,2.72,8.51,8.51,0,0,1,1.39,3.5.72.72,0,0,1-.27.73,3,3,0,0,1-.7.63c-.68.33-.46,2-2,1.15-.75-.4-1.87-.13-2.58-.94a3.34,3.34,0,0,0-.69-.42C720.17,596.19,719.08,595.26,719.31,593.55Z"/><path d="M805.77,558.09a3.26,3.26,0,0,1,2.54,1.3,14.44,14.44,0,0,0,2.59,2.15,1.73,1.73,0,0,1,.8,1.6c0,.58,0,1.17,0,1.76a1.27,1.27,0,0,1-.89,1.23c-1.15.49-2.4.28-3.59.53a.15.15,0,0,1-.13,0c-1.06-.92-2.58-1.11-3.5-2.24-.71-.86-.6-2.94.35-3.5A4.31,4.31,0,0,0,805.77,558.09Z"/><path d="M805.13,553.69l.12,0-.08-.08Z"/></svg>