<svg xmlns="http://www.w3.org/2000/svg" viewBox="0 0 453.96 58.96"><title>webbeefTypeLogo</title><path d="M26.35,2c.94,0,2,.57,4,1.94,3.6,2.38,5.11,3.82,6.33,6.19a6.85,6.85,0,0,1,.94,3.67,6.81,6.81,0,0,1-.79,3.75,15.65,15.65,0,0,1-1.44,2.73,2.7,2.7,0,0,0-.58,1.37c0,.65.72,1.15,2.45,2.38,2.74,1.73,4,3,4.9,4.82.43.8.93,1.66,1.08,2a10.91,10.91,0,0,1,.64,4.32,11.25,11.25,0,0,1-.72,4.68c-1.22,2.45-4.89,6.34-8.93,9.58-.86.72-2.37,1.94-3.31,2.81a11.79,11.79,0,0,1-2.37,1.87c-.51.29-3.6.36-7.13.36a79.43,79.43,0,0,1-10.66-.51,8.7,8.7,0,0,0-2.23-.36,6.38,6.38,0,0,0-2.52.58,7.4,7.4,0,0,1-2.59.58c-1.16,0-2-.44-2-1.3C1.44,52,3.89,49,6.48,47a6.62,6.62,0,0,0,1.73-1.8c.29-.58.43-3.24.43-9.58,0-2.73,0-6.19-.07-10.51C8.5,14.34,8.64,14.77,5.9,13,4.18,11.82,3.31,10.74,3.31,9.8S5,6.35,6.55,5.05,8.93,3.4,9.86,3.4A5,5,0,0,1,12.6,4.55a14.86,14.86,0,0,1,2.52,1.94,2.74,2.74,0,0,0,2,1c.93,0,2-.58,3.6-1.87,1.15-.94,2.66-2.09,3.45-2.67A4.29,4.29,0,0,1,26.35,2ZM17.79,15.78c-.22.72-.29,4.82-.29,13.39.07,5.26.43,14.4.65,14.84.93,1.58,2.08,1.94,6.33,2.16,5,.21,7.2-.36,8.86-2.31A4.9,4.9,0,0,0,35,40.12a6.5,6.5,0,0,0-.93-4.18,10.24,10.24,0,0,0-5.19-4.89,9.46,9.46,0,0,0-2.23-.72,19.53,19.53,0,0,0-2.3.57,6.59,6.59,0,0,1-1.87.51,2.5,2.5,0,0,1-1.08-.29c-.94-.36-1.44-.79-1.44-1.44a2.17,2.17,0,0,1,.14-.65,13.72,13.72,0,0,1,3.67-4.18c2.88-1.65,4.54-3.45,5.11-5.47a2.21,2.21,0,0,0,.08-.72,5.39,5.39,0,0,0-1.3-3.1,8.5,8.5,0,0,0-3.46-3A4.1,4.1,0,0,0,22,11.89a3.22,3.22,0,0,0-1.73.51A6.38,6.38,0,0,0,17.79,15.78Z" style="fill:#e5899b"/><path d="M59.18,5.77a20,20,0,0,0,3.17,2.38c1.44.79,2.09,1.51,2.09,2.3a3.65,3.65,0,0,1-1.22,2.23,10.35,10.35,0,0,0-2.6,5.84,14.78,14.78,0,0,0,.44,3.09,8.27,8.27,0,0,1,.28,2.95,13.38,13.38,0,0,0-.43,3.24,17.14,17.14,0,0,0,.15,1.95,28,28,0,0,1,.07,2.81c0,3.24-.15,8.13-.43,10.29a2.72,2.72,0,0,0-.08.72c0,.51.15.65.8,1.3A5.35,5.35,0,0,0,63,46c2.74.58,3.31,1,3.31,2.38A7.12,7.12,0,0,1,63,53.44c-.65.36-.94.43-3.67.43H55.08c-6.41,0-7.13-.07-7.63-.43a1.55,1.55,0,0,1-.65-1.3c0-1.15,1-2.8,2.88-4.46,2.16-2,2.45-1.51,2.45-10.51V29.46c-.07-16.63.14-15-2.16-16.63-2.59-1.8-2.74-2-2.74-2.88s.15-1,1.44-2.23a11.29,11.29,0,0,1,1.59-1.3,12.2,12.2,0,0,0,1.36-1,15.54,15.54,0,0,1,2-1.37,2.93,2.93,0,0,1,1.58-.36A4,4,0,0,1,56.74,4,10.76,10.76,0,0,1,59.18,5.77Z" style="fill:#e5899b"/><path d="M88.34,1.24c1.08,0,2.09.79,3.32,2.59a8.54,8.54,0,0,0,2.59,2.45,11.43,11.43,0,0,0,5.62,2.08c2.08.29,3.09.94,3.09,2a3,3,0,0,1-.43,1.37c-.72,1.51-3.31,4.46-4.25,4.82a7.19,7.19,0,0,1-2.45.29,13.18,13.18,0,0,1-3-.29,19.23,19.23,0,0,1-5.83-3,3.87,3.87,0,0,0-2.67-1.15,3.51,3.51,0,0,0-2.59,1.22,4.58,4.58,0,0,0-1.44,3.17A4.25,4.25,0,0,0,82,20.1c1.29,1.08,7.2,2.95,10.65,3.38a8,8,0,0,1,2.31.73,20.68,20.68,0,0,0,2.73.93,7.27,7.27,0,0,1,2.24.87c.36.21,1.22.71,1.94,1.08a9.25,9.25,0,0,1,4.32,4.82,9.3,9.3,0,0,1,.94,4.18v1.08a6.83,6.83,0,0,1-.22,2c-.21.51-.65,1.66-.93,2.45-1.37,3.6-5.26,8.14-10.45,12.17C94,55,91,56.61,90.36,56.61a4.56,4.56,0,0,1-3-1.87c-1.51-2.16-6-4-9.51-4A6.62,6.62,0,0,0,73,52.36a2.78,2.78,0,0,1-1.88.86,1.82,1.82,0,0,1-1.44-.64,1.26,1.26,0,0,1-.5-1,6.89,6.89,0,0,1,.43-1.87,13.91,13.91,0,0,1,4.32-5.91c1.66-1.37,1.8-1.37,5.4-2a18.65,18.65,0,0,1,3-.43,7.27,7.27,0,0,1,1.87.29c1.08.22,2.45.51,3,.58a17.58,17.58,0,0,1,5.47,2.59c1.44,1.22,2,1.44,3,1.44.86,0,1.15-.14,2-1a4.71,4.71,0,0,0,1.51-3.38,6.92,6.92,0,0,0-1.79-4.25,6.33,6.33,0,0,0-1.95-1.73L93,34.79a13.8,13.8,0,0,0-3.16-1,8.58,8.58,0,0,1-2.52-.72,15.77,15.77,0,0,0-3.1-1,30.74,30.74,0,0,1-3-1,23,23,0,0,0-2.16-.87,22.91,22.91,0,0,1-5.77-3.24A10.22,10.22,0,0,1,70.56,21,4.83,4.83,0,0,1,71.13,19c1-1.95,3.32-4.68,7.35-8.57,1.8-1.8,4.25-4.39,5.4-5.69a21.65,21.65,0,0,1,3-2.95A2.88,2.88,0,0,1,88.34,1.24Z" style="fill:#e5899b"/><path d="M153.15,5.48c0,.72-.72,1.59-2.38,3-2.09,1.8-3,2.8-3.6,4.24-.51,1.16-.51.15-.65,21.1V38c0,4.11.07,4.54.43,5.11.79,1.44,2.16,2.24,4.76,2.81a1.48,1.48,0,0,1,1.08,1.44,2.19,2.19,0,0,1-.15.72c-.36,1-4.25,5.19-5.62,6a4,4,0,0,1-2.08.72,3.31,3.31,0,0,1-1.8-.58,31.47,31.47,0,0,1-4.68-3.52l-1.37-1.3V41.34c0-5.47-.07-8.28-.29-8.64-.58-1.08-1.58-1.37-5.11-1.37s-4.61.22-5.12,1.23a33.16,33.16,0,0,0-.28,5.61c0,6,.07,6.27,2,6.77a17.1,17.1,0,0,0,2.16.51c1.23.21,1.73.86,1.8,2.23,0,1.08-.07,1.15-2.16,3.31a24.12,24.12,0,0,1-2.8,2.52c-.44.22-2.45.36-6.34.51-3,.07-4.83.14-5.91.14-1.51,0-1.65-.07-2.08-.36a1.7,1.7,0,0,1-.72-1.51,5.32,5.32,0,0,1,1.44-3.24c.5-.58,1.36-1.73,1.87-2.45l.86-1.37-.07-9.29c-.07-17.21-.14-18.22-.65-19.15a5.88,5.88,0,0,0-3.6-3,6.18,6.18,0,0,1-1.87-1.08,2.3,2.3,0,0,1-.22-1,6.32,6.32,0,0,1,2.45-4.18c2.38-1.94,3.82-2.88,5-2.88a3.26,3.26,0,0,1,1.87.65c.65.36,1.59.86,2.09,1.08a22.47,22.47,0,0,1,4.32,4.1c.36.51.44,1.51.44,6.84,0,7.42.07,7.13,6.33,7.13,3.75,0,4.11-.65,4.54-4.68s.43-4.61,1-5.33a11.78,11.78,0,0,0,1.15-1.73,21.16,21.16,0,0,1,9.22-8.56,6.11,6.11,0,0,1,2.44-.72,1.91,1.91,0,0,1,1.52.72A1.85,1.85,0,0,1,153.15,5.48Z" style="fill:#e5899b"/><path d="M202.75,26.72c0,17.29-6.05,20.53-14,25.64a22.44,22.44,0,0,1-11.16,2.88c-6.55,0-14-2.81-18.36-12A30.25,30.25,0,0,1,156,30c0-11.53,7.13-19.81,10.3-22.18,6.62-5,11.37-6.12,16.56-6.12C188.86,1.67,202.75,10.31,202.75,26.72Zm-36.65-3a38.3,38.3,0,0,0,1.73,10.8c2.23,7.42,7.56,15.27,13.61,15.27a8.84,8.84,0,0,0,6.26-3c3.17-3,4.32-7.41,4.32-12.09a44.34,44.34,0,0,0-5.54-20.09c-2.3-3.75-6-7.06-9.94-7.06-2.16,0-4.39,1-6.48,3.53C167.47,14.2,166.1,18.52,166.1,23.7Z" style="fill:#e5899b"/><path d="M234.79,3.18a23.57,23.57,0,0,0,4.54,3.89,14.5,14.5,0,0,1,6.48,8.06c.72,2.38.72,2.74.72,6.34a7.41,7.41,0,0,1-.72,3.46,19.8,19.8,0,0,1-1.37,2.8,10.31,10.31,0,0,0-.94,1.37,18.8,18.8,0,0,1-1.72,2.16,31.73,31.73,0,0,0-2,2.45c-.36.43-1.51,1.66-2.66,2.74a11.29,11.29,0,0,1-3.32,2.37,13.63,13.63,0,0,0-2.08,1.08,3.51,3.51,0,0,1-2.31.72,3,3,0,0,1-1.44-.36A16.32,16.32,0,0,0,224.21,38a3.34,3.34,0,0,0-.72-.14c-.29,0-.44.14-.72.57-.51.58-.51.79-.51,3,0,3.52.22,3.89,2.81,4.17,1.66.15,2.74,1,2.74,2.09a2.45,2.45,0,0,1-.36,1.15,24.68,24.68,0,0,1-4.61,4.9l-.94.58-6.19-.08a57.61,57.61,0,0,1-7.06-.28,1.42,1.42,0,0,1-1.15-1.52c0-1.15.65-2.37,3.17-5.25a11.37,11.37,0,0,0,1.51-2.09l.72-1.08V29.53L213,15.06l-.64-1c-.94-1.37-1.16-1.58-3.82-3-2.38-1.15-2.88-1.58-2.88-2.3s2.38-3.24,3.82-4A14.66,14.66,0,0,0,211.75,3c.58-.58.94-.87,1.44-.87.65,0,1.44.43,2.88,1.37,3.74,2.38,4.9,3.1,5.4,3.24.79.29,1.87-.29,3.89-1.94a26.2,26.2,0,0,1,4.75-3.24,3.62,3.62,0,0,1,1.73-.44,2.14,2.14,0,0,1,1.44.44C233.5,1.81,234.22,2.53,234.79,3.18Zm-8.14,7.7a4.35,4.35,0,0,0-2.88,1.59c-1.44,1.37-1.51,1.29-1.51,7.7,0,8.21,0,9.51.36,10.08a1.12,1.12,0,0,0,.87.51,3.64,3.64,0,0,0,1.94-.87,3.87,3.87,0,0,1,2.23-.93,8,8,0,0,1,3,1.08c1.65.79,2.3,1.15,2.88,1.15,1.65,0,2.59-1,3.45-3.24a9.29,9.29,0,0,0,.72-3.1,10.76,10.76,0,0,0-.86-3.74l-.79-2.31c0-.5-6.34-6.26-8.28-7.56A2.49,2.49,0,0,0,226.65,10.88Z" style="fill:#e5899b"/><path d="M303.12,2c.93,0,2,.57,4,1.94,3.6,2.38,5.11,3.82,6.34,6.19a6.83,6.83,0,0,1,.93,3.67,6.81,6.81,0,0,1-.79,3.75,15,15,0,0,1-1.44,2.73,2.7,2.7,0,0,0-.58,1.37c0,.65.72,1.15,2.45,2.38,2.74,1.73,4,3,4.9,4.82.43.8.93,1.66,1.08,2a10.88,10.88,0,0,1,.65,4.32,11.42,11.42,0,0,1-.72,4.68c-1.23,2.45-4.9,6.34-8.93,9.58-.87.72-2.38,1.94-3.31,2.81a12.06,12.06,0,0,1-2.38,1.87c-.5.29-3.6.36-7.13.36a79.54,79.54,0,0,1-10.66-.51,8.7,8.7,0,0,0-2.23-.36,6.46,6.46,0,0,0-2.52.58,7.36,7.36,0,0,1-2.59.58c-1.15,0-2-.44-2-1.3,0-1.44,2.45-4.47,5-6.41a6.47,6.47,0,0,0,1.73-1.8c.29-.58.43-3.24.43-9.58,0-2.73,0-6.19-.07-10.51-.07-10.8.07-10.37-2.66-12.17-1.73-1.15-2.59-2.23-2.59-3.17s1.65-3.45,3.24-4.75,2.37-1.65,3.31-1.65a5,5,0,0,1,2.73,1.15,14.86,14.86,0,0,1,2.52,1.94,2.74,2.74,0,0,0,1.95,1c.93,0,2-.58,3.6-1.87,1.15-.94,2.66-2.09,3.46-2.67A4.23,4.23,0,0,1,303.12,2Zm-8.57,13.82c-.22.72-.29,4.82-.29,13.39.07,5.26.43,14.4.65,14.84.93,1.58,2.09,1.94,6.33,2.16,5.05.21,7.21-.36,8.86-2.31a4.88,4.88,0,0,0,1.66-3.74,6.44,6.44,0,0,0-.94-4.18,10.22,10.22,0,0,0-5.18-4.89,9.75,9.75,0,0,0-2.23-.72,19,19,0,0,0-2.31.57,6.59,6.59,0,0,1-1.87.51,2.5,2.5,0,0,1-1.08-.29c-.94-.36-1.44-.79-1.44-1.44a2.17,2.17,0,0,1,.14-.65,13.89,13.89,0,0,1,3.68-4.18c2.88-1.65,4.53-3.45,5.11-5.47a2.52,2.52,0,0,0,.07-.72,5.39,5.39,0,0,0-1.3-3.1,8.54,8.54,0,0,0-3.45-3,4.13,4.13,0,0,0-2.24-.72,3.17,3.17,0,0,0-1.72.51A6.34,6.34,0,0,0,294.55,15.78Z" style="fill:#e5899b"/><path d="M347.54,4c.94,0,2.23.44,5.11,1.66A37.9,37.9,0,0,0,357,7.14a1.88,1.88,0,0,1,1.59,2.38c-.29,1.51-2.67,3.67-5.55,5.11a6.09,6.09,0,0,1-2.45.93,3.07,3.07,0,0,1-1.51-.57,20,20,0,0,0-2-.87,18.44,18.44,0,0,1-2.52-.93,4.41,4.41,0,0,0-1.59-.51,2.7,2.7,0,0,0-1.51.65c-1.66,1.23-1.66,1.15-1.66,6.84,0,4.68,0,5.19.44,5.62a1.93,1.93,0,0,0,1.51.58,6.26,6.26,0,0,0,2.52-.65c1.15-.51,1.58-.58,3.74-.58a9.36,9.36,0,0,1,3.6.43,14.07,14.07,0,0,0,3,.72c2.45.29,3.09.72,3.09,2,0,.72-.5,1.44-1.87,2.81-2.88,2.88-4.61,4.17-6.26,4.17a5,5,0,0,1-2.67-1,6.79,6.79,0,0,0-4-1.3,4,4,0,0,0-2.16.58c-.79.5-1,1.44-1,4.53,0,3.75.29,5.12,1.16,6l.64.65L347,45c3.89.15,6.26.22,7.7.22,2.31,0,2.52-.22,3.24-.72a5.33,5.33,0,0,1,2.88-1.08,1.85,1.85,0,0,1,1.66.87,1.38,1.38,0,0,1,.21.71c0,1-.93,2.17-3.6,4.9a33.76,33.76,0,0,1-4,3.67,3.47,3.47,0,0,1-2.59.65,24.18,24.18,0,0,1-3.67-.5c-1.15-.29-3.31-.65-4.83-.87s-3.74-.43-4.82-.57a9.51,9.51,0,0,0-1.8-.22,15.17,15.17,0,0,0-2.88.43,16.27,16.27,0,0,0-7.13,3,2.87,2.87,0,0,1-1.66.65,1.45,1.45,0,0,1-1.44-1.8,3.87,3.87,0,0,1,.36-1,15.67,15.67,0,0,1,3.68-4.11c1.94-1.44,2.23-.93,2.23-8.85,0-2.24-.07-5.12-.07-8.93,0-9.43-.15-15.56-.29-16-.29-1-2.45-2.73-4.18-3.38s-2.52-1.44-2.52-2.38a2.35,2.35,0,0,1,.22-.93c.43-1,3.53-3.6,5-4.18a5.24,5.24,0,0,1,1.87-.43,8,8,0,0,1,2.67.65,8.25,8.25,0,0,1,3.38,2.23c1,.93,1.66,1.44,2.3,1.44.8,0,1.59-.51,3.1-1.59a28.38,28.38,0,0,1,3.6-2.3A4,4,0,0,1,347.54,4Z" style="fill:#e5899b"/><path d="M389.59,4c.93,0,2.23.44,5.11,1.66A37.9,37.9,0,0,0,399,7.14a1.88,1.88,0,0,1,1.59,2.38c-.29,1.51-2.67,3.67-5.55,5.11a6.09,6.09,0,0,1-2.45.93A3.07,3.07,0,0,1,391.1,15a20.35,20.35,0,0,0-2-.87,19.48,19.48,0,0,1-2.52-.93,4.31,4.31,0,0,0-1.58-.51,2.67,2.67,0,0,0-1.51.65c-1.66,1.23-1.66,1.15-1.66,6.84,0,4.68,0,5.19.43,5.62a2,2,0,0,0,1.52.58,6.26,6.26,0,0,0,2.52-.65c1.15-.51,1.58-.58,3.74-.58a9.36,9.36,0,0,1,3.6.43,14.11,14.11,0,0,0,3,.72c2.45.29,3.1.72,3.1,2,0,.72-.5,1.44-1.87,2.81-2.88,2.88-4.61,4.17-6.27,4.17a5,5,0,0,1-2.66-1,6.79,6.79,0,0,0-4-1.3,4,4,0,0,0-2.16.58c-.79.5-1,1.44-1,4.53,0,3.75.29,5.12,1.15,6l.65.65,5.47.21c3.89.15,6.27.22,7.71.22,2.3,0,2.52-.22,3.24-.72a5.33,5.33,0,0,1,2.88-1.08,1.85,1.85,0,0,1,1.66.87,1.38,1.38,0,0,1,.21.71c0,1-.93,2.17-3.6,4.9a33.76,33.76,0,0,1-4,3.67,3.47,3.47,0,0,1-2.59.65,24.18,24.18,0,0,1-3.67-.5c-1.16-.29-3.32-.65-4.83-.87s-3.74-.43-4.82-.57a9.51,9.51,0,0,0-1.8-.22,15.17,15.17,0,0,0-2.88.43,16.27,16.27,0,0,0-7.13,3,2.87,2.87,0,0,1-1.66.65,1.45,1.45,0,0,1-1.44-1.8,3.53,3.53,0,0,1,.36-1,15.79,15.79,0,0,1,3.67-4.11c1.95-1.44,2.24-.93,2.24-8.85,0-2.24-.07-5.12-.07-8.93,0-9.43-.15-15.56-.29-16-.29-1-2.45-2.73-4.18-3.38s-2.52-1.44-2.52-2.38a2.35,2.35,0,0,1,.22-.93c.43-1,3.52-3.6,5-4.18a5.2,5.2,0,0,1,1.87-.43,7.94,7.94,0,0,1,2.66.65,8.35,8.35,0,0,1,3.39,2.23c1,.93,1.65,1.44,2.3,1.44s1.59-.51,3.1-1.59a28.38,28.38,0,0,1,3.6-2.3A4,4,0,0,1,389.59,4Z" style="fill:#e5899b"/><path d="M434.88,2.17c.64,0,1.29.43,2.44,1.23.94.72,1.95,1.51,2.31,1.87,1,.93,2.23,1.29,4.54,1.29h2.08l.94.94a3.18,3.18,0,0,1,.94,1.44c0,.79-1.37,2.81-3,4.61-1.51,1.58-1.87,1.8-2.88,1.94a14.83,14.83,0,0,1-1.87.07,19.93,19.93,0,0,1-5-.5l-2.74-1.51a9.07,9.07,0,0,0-2.52-1.15c-.79,0-2.81,1.87-3.24,3a25.08,25.08,0,0,0-.36,5,17.55,17.55,0,0,0,.29,4.1c.29.87.72,1.23,1.44,1.23a5.17,5.17,0,0,0,1.94-.58c1.16-.5,1.66-.57,4.47-.57a13.51,13.51,0,0,1,5,.57,8.79,8.79,0,0,0,3.31.65,10.54,10.54,0,0,1,1.37-.07,2,2,0,0,1,1.8.72,1.73,1.73,0,0,1,.65,1.22c0,.58-.44,1.23-1.23,2.31a19.23,19.23,0,0,1-4.1,4.25c-1.23,1-1.95,1.44-2.81,1.44a5,5,0,0,1-2.45-.87,17.3,17.3,0,0,0-6.7-1.58,5.31,5.31,0,0,0-1.22.14c-1.44.51-1.73,1.44-1.73,5.62,0,5.11.22,5.47,3.1,5.83,1.8.22,2.95,1.15,2.95,2.16a1.55,1.55,0,0,1-.22.79,26.28,26.28,0,0,1-3.67,4.47c-1.51,1.29-1.87,1.37-5.76,1.29-1.94,0-4.82,0-6.34.15l-2.73.21-.87-.86a2.38,2.38,0,0,1-.86-1.58c0-.8,1.08-2.6,2.52-4.18,1.73-1.8,1.94-1.59,1.94-9.79V30.69c-.07-7.42-.21-13.9-.28-14.48a8,8,0,0,0-.8-1.73,9.75,9.75,0,0,0-3.81-2.66c-.36-.07-1.08-.14-1.59-.29-1.22-.14-2.37-1.15-2.37-2s1.15-2.52,3-4.18a7.39,7.39,0,0,1,5-2.23A9.51,9.51,0,0,1,419,3.9,13.38,13.38,0,0,1,423.79,7a3.15,3.15,0,0,0,1.94,1.08c.79,0,1.59-.58,2.95-1.8A25,25,0,0,1,434,2.39,1.87,1.87,0,0,1,434.88,2.17Z" style="fill:#e5899b"/></svg>